<svg width="80" height="80" viewBox="0 0 80 80" fill="none" xmlns="http://www.w3.org/2000/svg">
<path fill-rule="evenodd" clip-rule="evenodd" d="M65.7272 33.9671C62.8566 27.6733 58.9268 19.0461 59.6176 6.28947C59.6329 5.95176 59.5101 5.62939 59.2799 5.38377C59.0496 5.13816 58.7272 5 58.3895 5H22.929C22.5913 5 22.2689 5.13816 22.0387 5.38377C21.8084 5.62939 21.6856 5.96711 21.7009 6.28947C22.4057 19.0219 18.4616 27.6864 15.577 34.0231L15.5606 34.0592L15.5382 34.1081C14.5653 36.2363 13.7304 38.0626 13.2887 39.6469C10.0036 51.1141 15.8062 65.7742 22.5913 74.5242C22.8216 74.8158 23.19 75 23.5584 75H57.7755C58.1593 75 58.5123 74.8158 58.7426 74.5242C65.6965 65.5439 71.1154 50.6842 68.0299 39.6469C67.5736 38.0348 66.7255 36.1665 65.7544 34.027L65.7272 33.9671ZM19.9892 30.237L19.9893 30.2369L19.9894 30.2367C20.0546 30.0832 20.1198 29.9298 20.1812 29.7763C23.0365 22.5154 24.4027 15.1162 24.2185 7.74781C24.2185 7.67105 24.2492 7.57895 24.3106 7.5329C24.372 7.47149 24.4487 7.44079 24.5255 7.44079H56.793C56.8698 7.44079 56.9619 7.47149 57.0079 7.5329C57.0694 7.5943 57.1001 7.67105 57.1001 7.74781C56.9158 15.1009 58.2821 22.5154 61.1373 29.761C61.2448 30.0526 61.3676 30.3443 61.5211 30.6974C61.5825 30.8509 61.5211 31.0198 61.3676 31.0965C55.0123 34.1053 47.8588 35.6864 40.6593 35.6864C33.4597 35.6864 26.3062 34.0899 19.9509 31.0965C19.7974 31.0198 19.736 30.8509 19.7974 30.6974C19.8588 30.544 19.9239 30.3907 19.9891 30.2374L19.9892 30.2372L19.9892 30.237ZM39.4312 72.2215C39.4312 72.3904 39.293 72.5286 39.1242 72.5286H24.3106C24.2185 72.5286 24.1264 72.4825 24.065 72.4057C20.3654 67.4628 17.6176 61.8136 16.0979 56.0877C14.7623 50.9913 14.4553 45.9562 15.2536 41.9189C15.2689 41.8268 15.3303 41.75 15.4071 41.704C15.4838 41.6579 15.5759 41.6579 15.668 41.6886C22.4992 44.3136 28.9619 49.3487 35.2251 54.2303C36.6373 55.3356 37.9729 56.3641 39.3237 57.3926C39.4005 57.454 39.4465 57.5461 39.4465 57.6382V72.2215H39.4312ZM40.6593 55.2588C40.5979 55.2588 40.5211 55.2435 40.4751 55.1974C39.293 54.2917 38.0957 53.3706 36.8369 52.3882C30.6198 47.5373 23.5737 42.057 16.2821 39.3092C16.1286 39.2478 16.0518 39.079 16.0979 38.9101C16.5539 37.6358 17.1272 36.4319 17.7255 35.1754L17.7255 35.1753C17.8119 34.9938 17.8988 34.8113 17.986 34.6272C18.1702 34.2588 18.3544 33.875 18.5387 33.4759C18.6154 33.3224 18.7996 33.261 18.9531 33.3377C25.6154 36.4847 33.122 38.1426 40.6593 38.1426C48.1965 38.1426 55.7031 36.4847 62.3654 33.3377C62.5189 33.261 62.7031 33.3377 62.7799 33.4759L63.3325 34.6272C64.0387 36.0855 64.6987 37.4518 65.2207 38.9101C65.2821 39.0636 65.19 39.2478 65.0365 39.2939C57.7294 42.0417 50.6834 47.5373 44.4663 52.3882C43.2075 53.3706 42.0255 54.2917 40.8435 55.1821C40.7974 55.2281 40.7207 55.2588 40.6593 55.2588ZM64.5299 57.8992C62.8873 63.1492 60.293 68.3071 57.2536 72.4057C57.1922 72.4825 57.1001 72.5286 57.0079 72.5286H42.1944C42.0255 72.5286 41.8873 72.3904 41.8873 72.2215V57.6382C41.8873 57.5461 41.9334 57.454 42.0101 57.3926C42.9716 56.6605 43.9564 55.8974 44.9314 55.1419L44.9319 55.1415L44.9341 55.1397L44.935 55.1391L44.937 55.1376C45.3299 54.833 45.7213 54.5298 46.1088 54.2303L46.2017 54.158C52.4205 49.3142 58.8378 44.316 65.6198 41.704C65.7119 41.6733 65.804 41.6733 65.8808 41.7193C65.9575 41.7654 66.0189 41.8421 66.0343 41.9342C66.8939 46.4935 66.372 52.0044 64.5299 57.8992ZM52.94 16.6517C53.6182 16.6517 54.168 16.1019 54.168 15.4236C54.168 14.7454 53.6182 14.1956 52.94 14.1956C52.2617 14.1956 51.7119 14.7454 51.7119 15.4236C51.7119 16.1019 52.2617 16.6517 52.94 16.6517ZM52.3257 21.7942C52.1722 21.1341 52.6021 20.474 53.2621 20.3359C53.3389 20.3205 53.431 20.3052 53.5231 20.3052C53.7534 20.3052 53.9836 20.3819 54.1832 20.5047C54.4595 20.6736 54.6437 20.9499 54.7205 21.2723C55.1656 23.3293 55.7336 25.417 56.4091 27.474C56.624 28.1188 56.2709 28.8096 55.6262 29.0245C54.9814 29.2394 54.2906 28.8863 54.0757 28.2416C53.3696 26.1078 52.7863 23.928 52.3257 21.7942ZM78.4223 17.2655H68.9201C68.7973 17.2655 68.6898 17.1888 68.6438 17.0813C68.5977 16.9739 68.6284 16.8357 68.7052 16.7436L72.2205 13.2283C72.6964 12.7524 72.6964 11.9695 72.2205 11.4936C71.9749 11.248 71.6679 11.1405 71.3455 11.1405C71.0232 11.1405 70.7161 11.2634 70.4705 11.4936L64.3302 17.634C63.8543 18.1098 63.8543 18.8927 64.3302 19.3686L70.4705 25.509C70.9464 25.9848 71.7293 25.9848 72.2052 25.509C72.6811 25.0331 72.6811 24.2502 72.2052 23.7743L68.6898 20.259C68.5977 20.1669 68.5824 20.044 68.6284 19.9212C68.6745 19.8138 68.7819 19.737 68.9047 19.737H78.4223C79.0977 19.737 79.6504 19.1844 79.6504 18.509C79.6504 17.8335 79.0977 17.2655 78.4223 17.2655ZM10.8324 11.4783L16.9728 17.6187C17.4487 18.1099 17.4487 18.8774 16.9728 19.3533L10.8324 25.4937C10.3566 25.9695 9.57367 25.9695 9.09779 25.4937C8.62192 25.0178 8.62192 24.2349 9.09779 23.759L12.6131 20.2437C12.6899 20.1516 12.7206 20.0134 12.6745 19.906C12.6285 19.7985 12.521 19.7217 12.3982 19.7217H2.89604C2.2206 19.7217 1.66797 19.1691 1.66797 18.4937C1.66797 17.8182 2.2206 17.2656 2.89604 17.2656H12.3829C12.5057 17.2656 12.6131 17.1888 12.6592 17.0814C12.7052 16.9586 12.6899 16.8358 12.5978 16.7437L9.08244 13.2283C8.85218 12.9827 8.72937 12.6757 8.72937 12.3533C8.72937 12.031 8.85218 11.7239 9.09779 11.4783C9.57367 11.0025 10.3566 11.0025 10.8324 11.4783Z" fill="#65A217"/>
<path fill-rule="evenodd" clip-rule="evenodd" d="M40.6606 55.259C40.5992 55.259 40.5225 55.2437 40.4764 55.1976C39.2944 54.2919 38.097 53.3709 36.8382 52.3884C30.6211 47.5375 23.5751 42.0573 16.2834 39.3095C16.1299 39.2481 16.0532 39.0792 16.0992 38.9103C16.5553 37.6361 17.1285 36.4321 17.7268 35.1756C17.8132 34.9941 17.9002 34.8115 17.9874 34.6275C18.1716 34.259 18.3558 33.8753 18.54 33.4761C18.6168 33.3226 18.801 33.2612 18.9545 33.338C25.6168 36.4849 33.1233 38.1428 40.6606 38.1428C48.1979 38.1428 55.7045 36.4849 62.3667 33.338C62.5203 33.2612 62.7045 33.338 62.7812 33.4761L63.3339 34.6275C64.04 36.0858 64.7001 37.452 65.222 38.9103C65.2834 39.0639 65.1913 39.2481 65.0378 39.2941C57.7308 42.0419 50.6847 47.5375 44.4676 52.3884C43.2089 53.3709 42.0268 54.2919 40.8448 55.1823C40.7988 55.2283 40.722 55.259 40.6606 55.259Z" fill="url(#paint0_linear_4457_54065)"/>
<defs>
<linearGradient id="paint0_linear_4457_54065" x1="16.0859" y1="33.3049" x2="66.6899" y2="51.1512" gradientUnits="userSpaceOnUse">
<stop stop-color="#E3EEFF"/>
<stop offset="0.526042" stop-color="#E4F6E4"/>
<stop offset="1" stop-color="#FFEEE4"/>
</linearGradient>
</defs>
</svg>
