<svg xmlns="http://www.w3.org/2000/svg" viewBox="0 0 130 130"><defs><style>.cls-1{fill:#b5dc10;}.cls-2{fill:none;}</style></defs><title>icon-principles-shield</title><g id="Layer_2" data-name="Layer 2"><g id="Layer_1-2" data-name="Layer 1"><path class="cls-1" d="M65,109.83a8.5,8.5,0,0,1,1.52-3.12c1.67-2,4.11-3.4,6.39-4.64a98.35,98.35,0,0,1,9.34-4.2,43.16,43.16,0,0,0,4.31-2.21C91.6,92.58,96.36,88.57,99,83.15a25.51,25.51,0,0,0,2.22-10c0-2.51-.16-5-.32-7.49-.68-10.47-.69-20.9-.69-31.39a.93.93,0,0,0-.57,0c-8.84,2.36-18.8,1.53-25.83-3.62a24.22,24.22,0,0,1-5.57-5.33,18.07,18.07,0,0,1-3.33-5.8,21.18,21.18,0,0,1-4.73,8.66,26,26,0,0,1-9.45,6.42,32,32,0,0,1-21.54.24c0,8.44.05,16.88-.11,25.32-.07,3.43-.2,6.86-.29,10.29,0,4.39.39,8.77,2.29,12.7a23,23,0,0,0,2.52,4,25.89,25.89,0,0,0,4.34,3.75,81,81,0,0,0,11.78,7,53.1,53.1,0,0,1,10.1,6c.41.29.8.58,1.18.89a16.34,16.34,0,0,1,1.35,1.49,17.35,17.35,0,0,1,2.44,3.5A.8.8,0,0,0,65,109.83Zm-2.28-6.1c-2.69-2.6-6.2-4.4-9.54-6.14C46.46,94.08,38.73,90.69,34.57,84s-3.23-15.2-3.18-22.75q.08-12.32.16-24.65c12.9,2.86,27.16-.79,33.08-13.15C69.14,37,86.93,39.59,99.31,36.62q-.06,12.1-.11,24.19c0,7.91,1.2,17-3.4,23.87-4.28,6.43-11.32,10-18,13.36-4.34,2.16-9.67,4.09-12.73,8A14.41,14.41,0,0,0,62.69,103.72Z"/><path class="cls-1" d="M90.08,58.37l0-.15a14.7,14.7,0,0,0-2.86-8.39C81,41.22,70,48.3,65.6,55.77A13.88,13.88,0,0,0,51.27,45.62a19.75,19.75,0,0,0-4.62,1.1l-.43.22a13.48,13.48,0,0,0-2.43,1.54A16.36,16.36,0,0,0,42.05,50a13.62,13.62,0,0,0-3.12,5.49c-1.29,6.21,3,11.7,6.76,16.16,1,1.2,2.06,2.37,3.11,3.53,5.85,5.93,11.94,11.65,16.77,18.43a1.07,1.07,0,0,0,.21,0A47.63,47.63,0,0,1,72.63,84c3.24-3.41,7.14-6.07,10.54-9.3a26.73,26.73,0,0,0,6.11-8.75A14.75,14.75,0,0,0,90.08,58.37ZM86,67.63c-2.66,5-6.7,8.44-11.12,11.89q-1,.79-2,1.61c-3.24,2.61-6.23,5.44-7.69,9.46a115.14,115.14,0,0,0-16.6-19.66c-3.26-3.2-6.78-6.76-7.4-11.51A10.47,10.47,0,0,1,43.07,52a11.73,11.73,0,0,1,9.81-4.45,15.1,15.1,0,0,1,7.7,3.64,22.18,22.18,0,0,1,4.13,9.11.5.5,0,0,0,.91.12c2.52-5.69,10-14,17-10.65S88.42,61.44,86,67.63Z"/><rect class="cls-2" width="130" height="130"/></g></g></svg>