<svg xmlns="http://www.w3.org/2000/svg" xmlns:xlink="http://www.w3.org/1999/xlink" width="200" zoomAndPan="magnify" viewBox="0 0 150 74.999997" height="100" preserveAspectRatio="xMidYMid meet" version="1.0"><defs><g/><clipPath id="b540d20060"><path d="M 83 10 L 98 10 L 98 26 L 83 26 Z M 83 10 " clip-rule="nonzero"/></clipPath><clipPath id="a27ba6e17c"><path d="M 91.363281 7.5 L 100.824219 13.589844 L 90.269531 29.988281 L 80.808594 23.898438 Z M 91.363281 7.5 " clip-rule="nonzero"/></clipPath><clipPath id="047f87fea7"><path d="M 91.363281 7.5 L 100.824219 13.589844 L 90.269531 29.988281 L 80.808594 23.898438 Z M 91.363281 7.5 " clip-rule="nonzero"/></clipPath><clipPath id="fc15ab534a"><path d="M 91.363281 7.5 L 100.824219 13.589844 L 90.269531 29.988281 L 80.808594 23.898438 Z M 91.363281 7.5 " clip-rule="nonzero"/></clipPath><clipPath id="9bfce7d6a0"><path d="M 96.152344 20.550781 C 96.933594 19.054688 97.203125 17.332031 97.144531 15.652344 C 97.085938 13.972656 96.714844 12.324219 96.28125 10.707031 C 96.140625 11.847656 95.257812 12.789062 94.242188 13.320312 C 93.222656 13.851562 92.078125 14.042969 90.953125 14.25 C 89.832031 14.453125 88.6875 14.6875 87.710938 15.292969 C 86.636719 15.953125 84.480469 18.21875 85.515625 21.351562 C 86.582031 20.070312 86.980469 19.664062 87.992188 19.011719 C 89.007812 18.359375 90.167969 17.996094 91.273438 17.519531 C 92.375 17.042969 93.476562 16.40625 94.125 15.386719 C 93.679688 16.214844 92.917969 16.828125 92.113281 17.308594 C 91.304688 17.785156 90.4375 18.15625 89.636719 18.636719 C 88.179688 19.503906 86.539062 21.011719 83.550781 25.660156 C 83.921875 25.125 84.472656 24.691406 85.078125 24.417969 C 85.167969 24.375 85.257812 24.339844 85.347656 24.304688 C 85.414062 24.28125 85.484375 24.257812 85.550781 24.234375 C 86.617188 23.894531 87.765625 23.917969 88.878906 23.96875 C 90.066406 24.023438 91.28125 24.09375 92.425781 23.761719 C 94.035156 23.296875 95.371094 22.046875 96.152344 20.550781 Z M 96.152344 20.550781 " clip-rule="nonzero"/></clipPath><linearGradient x1="2460.78" gradientTransform="matrix(-0.0134442, -0.00865365, -0.00879813, 0.0136686, 129.404112, 31.986532)" y1="-28.527881" x2="2460.78" gradientUnits="userSpaceOnUse" y2="1199.599942" id="c70da373bc"><stop stop-opacity="1" stop-color="rgb(49.84436%, 70.625305%, 25.431824%)" offset="0"/><stop stop-opacity="1" stop-color="rgb(49.699402%, 70.455933%, 25.418091%)" offset="0.125"/><stop stop-opacity="1" stop-color="rgb(49.407959%, 70.118713%, 25.390625%)" offset="0.25"/><stop stop-opacity="1" stop-color="rgb(49.118042%, 69.781494%, 25.363159%)" offset="0.375"/><stop stop-opacity="1" stop-color="rgb(48.828125%, 69.444275%, 25.337219%)" offset="0.5"/><stop stop-opacity="1" stop-color="rgb(48.538208%, 69.107056%, 25.309753%)" offset="0.625"/><stop stop-opacity="1" stop-color="rgb(48.248291%, 68.769836%, 25.283813%)" offset="0.75"/><stop stop-opacity="1" stop-color="rgb(47.958374%, 68.432617%, 25.256348%)" offset="0.875"/><stop stop-opacity="1" stop-color="rgb(47.668457%, 68.096924%, 25.228882%)" offset="1"/></linearGradient><clipPath id="b00154d58b"><path d="M 83 10 L 98 10 L 98 26 L 83 26 Z M 83 10 " clip-rule="nonzero"/></clipPath><clipPath id="7dcf2ed72c"><path d="M 91.363281 7.5 L 100.824219 13.589844 L 90.269531 29.988281 L 80.808594 23.898438 Z M 91.363281 7.5 " clip-rule="nonzero"/></clipPath><clipPath id="5f4f3490aa"><path d="M 91.363281 7.5 L 100.824219 13.589844 L 90.269531 29.988281 L 80.808594 23.898438 Z M 91.363281 7.5 " clip-rule="nonzero"/></clipPath><clipPath id="605b139958"><path d="M 91.363281 7.5 L 100.824219 13.589844 L 90.269531 29.988281 L 80.808594 23.898438 Z M 91.363281 7.5 " clip-rule="nonzero"/></clipPath></defs><g fill="#fc7217" fill-opacity="0.4"><g transform="translate(26.282703, 48.51977)"><g><path d="M 5.984375 -21.359375 C 5.503906 -20.941406 5.179688 -20.476562 5.015625 -19.96875 C 4.847656 -19.46875 4.765625 -18.929688 4.765625 -18.359375 C 4.765625 -17.785156 5.007812 -17.253906 5.5 -16.765625 C 6 -16.285156 6.65625 -15.878906 7.46875 -15.546875 C 8.28125 -15.222656 9.207031 -14.929688 10.25 -14.671875 C 11.289062 -14.421875 12.351562 -14.160156 13.4375 -13.890625 C 14.519531 -13.628906 15.582031 -13.328125 16.625 -12.984375 C 17.664062 -12.640625 18.59375 -12.203125 19.40625 -11.671875 C 21.207031 -10.523438 22.109375 -8.960938 22.109375 -6.984375 C 22.109375 -4.617188 21.222656 -2.8125 19.453125 -1.5625 C 17.691406 -0.3125 15.25 0.3125 12.125 0.3125 C 8.59375 0.3125 5.898438 -0.425781 4.046875 -1.90625 C 2.390625 -3.226562 1.445312 -5.109375 1.21875 -7.546875 L 4.1875 -7.546875 C 4.289062 -5.816406 5.128906 -4.492188 6.703125 -3.578125 C 8.078125 -2.796875 9.894531 -2.40625 12.15625 -2.40625 C 16.882812 -2.40625 19.25 -3.890625 19.25 -6.859375 C 19.25 -7.878906 18.820312 -8.679688 17.96875 -9.265625 C 17.125 -9.847656 16.054688 -10.328125 14.765625 -10.703125 C 13.484375 -11.085938 12.097656 -11.445312 10.609375 -11.78125 C 9.128906 -12.113281 7.742188 -12.539062 6.453125 -13.0625 C 5.171875 -13.582031 4.101562 -14.265625 3.25 -15.109375 C 2.40625 -15.960938 1.984375 -17.113281 1.984375 -18.5625 C 1.984375 -20.625 2.769531 -22.300781 4.34375 -23.59375 C 5.914062 -24.894531 8.289062 -25.546875 11.46875 -25.546875 C 14.675781 -25.546875 17.15625 -24.804688 18.90625 -23.328125 C 20.507812 -22.035156 21.363281 -20.375 21.46875 -18.34375 L 18.53125 -18.34375 C 18.269531 -20.425781 16.921875 -21.8125 14.484375 -22.5 C 13.617188 -22.75 12.546875 -22.875 11.265625 -22.875 C 9.984375 -22.875 8.898438 -22.726562 8.015625 -22.4375 C 7.140625 -22.144531 6.460938 -21.785156 5.984375 -21.359375 Z M 5.984375 -21.359375 "/></g></g></g><g fill="#fc7217" fill-opacity="1"><g transform="translate(26.282703, 48.51977)"><g><path d="M 5.984375 -21.359375 C 5.503906 -20.941406 5.179688 -20.476562 5.015625 -19.96875 C 4.847656 -19.46875 4.765625 -18.929688 4.765625 -18.359375 C 4.765625 -17.785156 5.007812 -17.253906 5.5 -16.765625 C 6 -16.285156 6.65625 -15.878906 7.46875 -15.546875 C 8.28125 -15.222656 9.207031 -14.929688 10.25 -14.671875 C 11.289062 -14.421875 12.351562 -14.160156 13.4375 -13.890625 C 14.519531 -13.628906 15.582031 -13.328125 16.625 -12.984375 C 17.664062 -12.640625 18.59375 -12.203125 19.40625 -11.671875 C 21.207031 -10.523438 22.109375 -8.960938 22.109375 -6.984375 C 22.109375 -4.617188 21.222656 -2.8125 19.453125 -1.5625 C 17.691406 -0.3125 15.25 0.3125 12.125 0.3125 C 8.59375 0.3125 5.898438 -0.425781 4.046875 -1.90625 C 2.390625 -3.226562 1.445312 -5.109375 1.21875 -7.546875 L 4.1875 -7.546875 C 4.289062 -5.816406 5.128906 -4.492188 6.703125 -3.578125 C 8.078125 -2.796875 9.894531 -2.40625 12.15625 -2.40625 C 16.882812 -2.40625 19.25 -3.890625 19.25 -6.859375 C 19.25 -7.878906 18.820312 -8.679688 17.96875 -9.265625 C 17.125 -9.847656 16.054688 -10.328125 14.765625 -10.703125 C 13.484375 -11.085938 12.097656 -11.445312 10.609375 -11.78125 C 9.128906 -12.113281 7.742188 -12.539062 6.453125 -13.0625 C 5.171875 -13.582031 4.101562 -14.265625 3.25 -15.109375 C 2.40625 -15.960938 1.984375 -17.113281 1.984375 -18.5625 C 1.984375 -20.625 2.769531 -22.300781 4.34375 -23.59375 C 5.914062 -24.894531 8.289062 -25.546875 11.46875 -25.546875 C 14.675781 -25.546875 17.15625 -24.804688 18.90625 -23.328125 C 20.507812 -22.035156 21.363281 -20.375 21.46875 -18.34375 L 18.53125 -18.34375 C 18.269531 -20.425781 16.921875 -21.8125 14.484375 -22.5 C 13.617188 -22.75 12.546875 -22.875 11.265625 -22.875 C 9.984375 -22.875 8.898438 -22.726562 8.015625 -22.4375 C 7.140625 -22.144531 6.460938 -21.785156 5.984375 -21.359375 Z M 5.984375 -21.359375 "/></g></g></g><g fill="#474747" fill-opacity="1"><g transform="translate(49.856293, 47.44068)"><g><path d="M 17.34375 0 L 15.15625 0 L 13.03125 -5.046875 L 4.390625 -5.046875 L 2.265625 0 L 0.078125 0 L 7.46875 -17.421875 L 9.953125 -17.421875 Z M 12.265625 -6.875 L 8.703125 -15.359375 L 5.15625 -6.875 Z M 12.265625 -6.875 "/></g></g></g><g fill="#474747" fill-opacity="1"><g transform="translate(64.775637, 47.44068)"><g/></g></g><g fill="#474747" fill-opacity="1"><g transform="translate(67.880238, 47.44068)"><g><path d="M 4.109375 -17.421875 L 4.109375 -1.890625 L 13.609375 -1.890625 L 13.609375 0 L 2.125 0 L 2.125 -17.421875 Z M 4.109375 -17.421875 "/></g></g></g><g fill="#474747" fill-opacity="1"><g transform="translate(79.405143, 47.44068)"><g><path d="M 9.875 -17.625 C 12.46875 -17.625 14.597656 -16.757812 16.265625 -15.03125 C 17.890625 -13.34375 18.703125 -11.234375 18.703125 -8.703125 C 18.703125 -6.179688 17.890625 -4.078125 16.265625 -2.390625 C 14.597656 -0.660156 12.46875 0.203125 9.875 0.203125 C 7.269531 0.203125 5.132812 -0.660156 3.46875 -2.390625 C 1.84375 -4.078125 1.03125 -6.179688 1.03125 -8.703125 C 1.03125 -11.234375 1.84375 -13.34375 3.46875 -15.03125 C 5.132812 -16.757812 7.269531 -17.625 9.875 -17.625 Z M 9.875 -1.703125 C 11.9375 -1.703125 13.609375 -2.378906 14.890625 -3.734375 C 16.117188 -5.035156 16.734375 -6.691406 16.734375 -8.703125 C 16.734375 -10.722656 16.117188 -12.382812 14.890625 -13.6875 C 13.609375 -15.03125 11.9375 -15.703125 9.875 -15.703125 C 7.800781 -15.703125 6.125 -15.03125 4.84375 -13.6875 C 3.613281 -12.382812 3 -10.722656 3 -8.703125 C 3 -6.691406 3.613281 -5.035156 4.84375 -3.734375 C 6.125 -2.378906 7.800781 -1.703125 9.875 -1.703125 Z M 9.875 -1.703125 "/></g></g></g><g clip-path="url(#b540d20060)"><g clip-path="url(#a27ba6e17c)"><g clip-path="url(#047f87fea7)"><g clip-path="url(#fc15ab534a)"><g clip-path="url(#9bfce7d6a0)"><path fill="url(#c70da373bc)" d="M 104.007812 15.089844 L 93.203125 31.875 L 76.742188 21.28125 L 87.550781 4.496094 Z M 104.007812 15.089844 " fill-rule="nonzero"/></g></g></g></g></g><g clip-path="url(#b00154d58b)"><g clip-path="url(#7dcf2ed72c)"><g clip-path="url(#5f4f3490aa)"><g clip-path="url(#605b139958)"><path stroke-linecap="butt" transform="matrix(0.0134442, 0.00865365, -0.00879813, 0.0136686, 91.922062, 7.860333)" fill="none" stroke-linejoin="miter" d="M 652.07739 515.603895 C 642.519015 412.200785 598.378693 314.116241 538.436188 229.179707 C 478.493684 144.243172 403.174045 71.328201 325.625282 2.110752 C 356.842071 65.795688 342.281733 143.887365 306.851866 205.184479 C 271.216562 266.611655 217.502831 314.621293 165.345226 362.78887 C 113.260825 410.62432 61.001675 460.85666 30.138645 524.692356 C -4.009039 594.608526 -40.714477 783.600459 119.778766 911.188979 C 132.490252 809.404774 139.69248 775.123685 170.817632 707.692653 C 202.148221 640.131558 250.865375 582.710856 292.871594 521.251185 C 334.672375 459.921577 371.051532 390.307348 370.640915 315.978183 C 375.254788 373.642932 355.955299 430.729283 329.900014 482.376154 C 303.507057 533.951026 270.462198 582.021119 244.612351 633.537928 C 197.340217 726.909674 162.09901 859.532871 162.298545 1199.487243 C 163.698963 1159.448487 177.987616 1118.680488 200.574021 1084.376224 C 203.844505 1079.162068 207.379459 1074.35204 210.914412 1069.542013 C 213.613444 1066.118555 216.517913 1062.565035 219.216945 1059.141578 C 263.797004 1006.054775 324.989084 969.02859 385.257868 934.58742 C 449.562203 897.877114 515.83354 861.064622 564.786821 805.780684 C 633.691203 728.149057 661.635764 619.007005 652.07739 515.603895 Z M 652.07739 515.603895 " stroke="#ffffff" stroke-width="1" stroke-opacity="1" stroke-miterlimit="10"/></g></g></g></g><g fill="#474747" fill-opacity="1"><g transform="translate(2.56556, 48.291531)"><g><path d="M 24.953125 0 L 21.8125 0 L 18.75 -7.265625 L 6.328125 -7.265625 L 3.25 0 L 0.109375 0 L 10.75 -25.078125 L 14.3125 -25.078125 Z M 17.65625 -9.890625 L 12.53125 -22.125 L 7.421875 -9.890625 Z M 17.65625 -9.890625 "/></g></g></g><g fill="#8cc342" fill-opacity="0.4"><g transform="translate(53.090514, 25.269175)"><g><path d="M 3.8125 -8.65625 C 3.320312 -8.65625 2.957031 -8.546875 2.71875 -8.328125 C 2.476562 -8.117188 2.359375 -7.78125 2.359375 -7.3125 L 2.359375 -6.796875 L 3.9375 -6.796875 L 3.9375 -5.90625 L 2.359375 -5.90625 L 2.359375 0 L 1.34375 0 L 1.34375 -5.90625 L 0.171875 -5.90625 L 0.171875 -6.796875 L 1.34375 -6.796875 L 1.34375 -7.390625 C 1.34375 -8.140625 1.5625 -8.695312 2 -9.0625 C 2.445312 -9.4375 3.066406 -9.625 3.859375 -9.625 L 3.9375 -9.625 L 3.9375 -8.65625 Z M 3.8125 -8.65625 "/></g></g></g><g fill="#8cc342" fill-opacity="0.4"><g transform="translate(57.262604, 25.269175)"><g><path d="M 3.828125 -6.90625 C 4.847656 -6.90625 5.675781 -6.566406 6.3125 -5.890625 C 6.90625 -5.234375 7.203125 -4.398438 7.203125 -3.390625 C 7.203125 -2.390625 6.90625 -1.5625 6.3125 -0.90625 C 5.675781 -0.226562 4.847656 0.109375 3.828125 0.109375 C 2.816406 0.109375 1.992188 -0.226562 1.359375 -0.90625 C 0.765625 -1.5625 0.46875 -2.390625 0.46875 -3.390625 C 0.46875 -4.398438 0.765625 -5.234375 1.359375 -5.890625 C 1.992188 -6.566406 2.816406 -6.90625 3.828125 -6.90625 Z M 3.828125 -0.8125 C 4.566406 -0.8125 5.148438 -1.066406 5.578125 -1.578125 C 5.984375 -2.054688 6.1875 -2.660156 6.1875 -3.390625 C 6.1875 -4.128906 5.984375 -4.738281 5.578125 -5.21875 C 5.148438 -5.726562 4.566406 -5.984375 3.828125 -5.984375 C 3.097656 -5.984375 2.519531 -5.726562 2.09375 -5.21875 C 1.6875 -4.738281 1.484375 -4.128906 1.484375 -3.390625 C 1.484375 -2.660156 1.6875 -2.054688 2.09375 -1.578125 C 2.519531 -1.066406 3.097656 -0.8125 3.828125 -0.8125 Z M 3.828125 -0.8125 "/></g></g></g><g fill="#8cc342" fill-opacity="0.4"><g transform="translate(64.927293, 25.269175)"><g><path d="M 3.828125 -6.90625 C 4.847656 -6.90625 5.675781 -6.566406 6.3125 -5.890625 C 6.90625 -5.234375 7.203125 -4.398438 7.203125 -3.390625 C 7.203125 -2.390625 6.90625 -1.5625 6.3125 -0.90625 C 5.675781 -0.226562 4.847656 0.109375 3.828125 0.109375 C 2.816406 0.109375 1.992188 -0.226562 1.359375 -0.90625 C 0.765625 -1.5625 0.46875 -2.390625 0.46875 -3.390625 C 0.46875 -4.398438 0.765625 -5.234375 1.359375 -5.890625 C 1.992188 -6.566406 2.816406 -6.90625 3.828125 -6.90625 Z M 3.828125 -0.8125 C 4.566406 -0.8125 5.148438 -1.066406 5.578125 -1.578125 C 5.984375 -2.054688 6.1875 -2.660156 6.1875 -3.390625 C 6.1875 -4.128906 5.984375 -4.738281 5.578125 -5.21875 C 5.148438 -5.726562 4.566406 -5.984375 3.828125 -5.984375 C 3.097656 -5.984375 2.519531 -5.726562 2.09375 -5.21875 C 1.6875 -4.738281 1.484375 -4.128906 1.484375 -3.390625 C 1.484375 -2.660156 1.6875 -2.054688 2.09375 -1.578125 C 2.519531 -1.066406 3.097656 -0.8125 3.828125 -0.8125 Z M 3.828125 -0.8125 "/></g></g></g><g fill="#8cc342" fill-opacity="0.4"><g transform="translate(72.591983, 25.269175)"><g><path d="M 6.1875 -1.09375 C 5.644531 -0.289062 4.832031 0.109375 3.75 0.109375 C 2.769531 0.109375 1.972656 -0.226562 1.359375 -0.90625 C 0.765625 -1.582031 0.46875 -2.410156 0.46875 -3.390625 C 0.46875 -4.378906 0.765625 -5.210938 1.359375 -5.890625 C 1.972656 -6.566406 2.789062 -6.90625 3.8125 -6.90625 C 4.84375 -6.90625 5.632812 -6.503906 6.1875 -5.703125 L 6.1875 -9.515625 L 7.203125 -9.515625 L 7.203125 0 L 6.1875 0 Z M 3.890625 -0.8125 C 4.617188 -0.8125 5.195312 -1.066406 5.625 -1.578125 C 6.03125 -2.054688 6.234375 -2.660156 6.234375 -3.390625 C 6.234375 -4.128906 6.03125 -4.738281 5.625 -5.21875 C 5.195312 -5.726562 4.617188 -5.984375 3.890625 -5.984375 C 3.160156 -5.984375 2.570312 -5.726562 2.125 -5.21875 C 1.695312 -4.738281 1.484375 -4.128906 1.484375 -3.390625 C 1.484375 -2.660156 1.695312 -2.054688 2.125 -1.578125 C 2.570312 -1.066406 3.160156 -0.8125 3.890625 -0.8125 Z M 3.890625 -0.8125 "/></g></g></g><g fill="#8cc342" fill-opacity="1"><g transform="translate(53.090514, 25.269175)"><g><path d="M 3.8125 -8.65625 C 3.320312 -8.65625 2.957031 -8.546875 2.71875 -8.328125 C 2.476562 -8.117188 2.359375 -7.78125 2.359375 -7.3125 L 2.359375 -6.796875 L 3.9375 -6.796875 L 3.9375 -5.90625 L 2.359375 -5.90625 L 2.359375 0 L 1.34375 0 L 1.34375 -5.90625 L 0.171875 -5.90625 L 0.171875 -6.796875 L 1.34375 -6.796875 L 1.34375 -7.390625 C 1.34375 -8.140625 1.5625 -8.695312 2 -9.0625 C 2.445312 -9.4375 3.066406 -9.625 3.859375 -9.625 L 3.9375 -9.625 L 3.9375 -8.65625 Z M 3.8125 -8.65625 "/></g></g></g><g fill="#8cc342" fill-opacity="1"><g transform="translate(57.262604, 25.269175)"><g><path d="M 3.828125 -6.90625 C 4.847656 -6.90625 5.675781 -6.566406 6.3125 -5.890625 C 6.90625 -5.234375 7.203125 -4.398438 7.203125 -3.390625 C 7.203125 -2.390625 6.90625 -1.5625 6.3125 -0.90625 C 5.675781 -0.226562 4.847656 0.109375 3.828125 0.109375 C 2.816406 0.109375 1.992188 -0.226562 1.359375 -0.90625 C 0.765625 -1.5625 0.46875 -2.390625 0.46875 -3.390625 C 0.46875 -4.398438 0.765625 -5.234375 1.359375 -5.890625 C 1.992188 -6.566406 2.816406 -6.90625 3.828125 -6.90625 Z M 3.828125 -0.8125 C 4.566406 -0.8125 5.148438 -1.066406 5.578125 -1.578125 C 5.984375 -2.054688 6.1875 -2.660156 6.1875 -3.390625 C 6.1875 -4.128906 5.984375 -4.738281 5.578125 -5.21875 C 5.148438 -5.726562 4.566406 -5.984375 3.828125 -5.984375 C 3.097656 -5.984375 2.519531 -5.726562 2.09375 -5.21875 C 1.6875 -4.738281 1.484375 -4.128906 1.484375 -3.390625 C 1.484375 -2.660156 1.6875 -2.054688 2.09375 -1.578125 C 2.519531 -1.066406 3.097656 -0.8125 3.828125 -0.8125 Z M 3.828125 -0.8125 "/></g></g></g><g fill="#8cc342" fill-opacity="1"><g transform="translate(64.927293, 25.269175)"><g><path d="M 3.828125 -6.90625 C 4.847656 -6.90625 5.675781 -6.566406 6.3125 -5.890625 C 6.90625 -5.234375 7.203125 -4.398438 7.203125 -3.390625 C 7.203125 -2.390625 6.90625 -1.5625 6.3125 -0.90625 C 5.675781 -0.226562 4.847656 0.109375 3.828125 0.109375 C 2.816406 0.109375 1.992188 -0.226562 1.359375 -0.90625 C 0.765625 -1.5625 0.46875 -2.390625 0.46875 -3.390625 C 0.46875 -4.398438 0.765625 -5.234375 1.359375 -5.890625 C 1.992188 -6.566406 2.816406 -6.90625 3.828125 -6.90625 Z M 3.828125 -0.8125 C 4.566406 -0.8125 5.148438 -1.066406 5.578125 -1.578125 C 5.984375 -2.054688 6.1875 -2.660156 6.1875 -3.390625 C 6.1875 -4.128906 5.984375 -4.738281 5.578125 -5.21875 C 5.148438 -5.726562 4.566406 -5.984375 3.828125 -5.984375 C 3.097656 -5.984375 2.519531 -5.726562 2.09375 -5.21875 C 1.6875 -4.738281 1.484375 -4.128906 1.484375 -3.390625 C 1.484375 -2.660156 1.6875 -2.054688 2.09375 -1.578125 C 2.519531 -1.066406 3.097656 -0.8125 3.828125 -0.8125 Z M 3.828125 -0.8125 "/></g></g></g><g fill="#8cc342" fill-opacity="1"><g transform="translate(72.591983, 25.269175)"><g><path d="M 6.1875 -1.09375 C 5.644531 -0.289062 4.832031 0.109375 3.75 0.109375 C 2.769531 0.109375 1.972656 -0.226562 1.359375 -0.90625 C 0.765625 -1.582031 0.46875 -2.410156 0.46875 -3.390625 C 0.46875 -4.378906 0.765625 -5.210938 1.359375 -5.890625 C 1.972656 -6.566406 2.789062 -6.90625 3.8125 -6.90625 C 4.84375 -6.90625 5.632812 -6.503906 6.1875 -5.703125 L 6.1875 -9.515625 L 7.203125 -9.515625 L 7.203125 0 L 6.1875 0 Z M 3.890625 -0.8125 C 4.617188 -0.8125 5.195312 -1.066406 5.625 -1.578125 C 6.03125 -2.054688 6.234375 -2.660156 6.234375 -3.390625 C 6.234375 -4.128906 6.03125 -4.738281 5.625 -5.21875 C 5.195312 -5.726562 4.617188 -5.984375 3.890625 -5.984375 C 3.160156 -5.984375 2.570312 -5.726562 2.125 -5.21875 C 1.695312 -4.738281 1.484375 -4.128906 1.484375 -3.390625 C 1.484375 -2.660156 1.695312 -2.054688 2.125 -1.578125 C 2.570312 -1.066406 3.160156 -0.8125 3.890625 -0.8125 Z M 3.890625 -0.8125 "/></g></g></g><g fill="#474747" fill-opacity="1"><g transform="translate(123.963406, 47.9873)"><g><path d="M 24.953125 0 L 21.8125 0 L 18.75 -7.265625 L 6.328125 -7.265625 L 3.25 0 L 0.109375 0 L 10.75 -25.078125 L 14.3125 -25.078125 Z M 17.65625 -9.890625 L 12.53125 -22.125 L 7.421875 -9.890625 Z M 17.65625 -9.890625 "/></g></g></g><g fill="#fc7217" fill-opacity="0.4"><g transform="translate(99.85317, 48.291531)"><g><path d="M 13.640625 -25.078125 C 15.128906 -25.078125 16.566406 -24.789062 17.953125 -24.21875 C 19.335938 -23.65625 20.5625 -22.828125 21.625 -21.734375 C 23.976562 -19.335938 25.15625 -16.269531 25.15625 -12.53125 C 25.15625 -8.800781 23.976562 -5.734375 21.625 -3.328125 C 20.5625 -2.242188 19.335938 -1.414062 17.953125 -0.84375 C 16.566406 -0.28125 15.128906 0 13.640625 0 L 3.0625 0 L 3.0625 -25.078125 Z M 13.515625 -2.6875 C 16.140625 -2.6875 18.273438 -3.660156 19.921875 -5.609375 C 21.515625 -7.472656 22.3125 -9.78125 22.3125 -12.53125 C 22.3125 -15.289062 21.515625 -17.601562 19.921875 -19.46875 C 18.273438 -21.414062 16.140625 -22.390625 13.515625 -22.390625 L 5.90625 -22.390625 L 5.90625 -2.6875 Z M 13.515625 -2.6875 "/></g></g></g><g fill="#fc7217" fill-opacity="1"><g transform="translate(99.85317, 48.291531)"><g><path d="M 13.640625 -25.078125 C 15.128906 -25.078125 16.566406 -24.789062 17.953125 -24.21875 C 19.335938 -23.65625 20.5625 -22.828125 21.625 -21.734375 C 23.976562 -19.335938 25.15625 -16.269531 25.15625 -12.53125 C 25.15625 -8.800781 23.976562 -5.734375 21.625 -3.328125 C 20.5625 -2.242188 19.335938 -1.414062 17.953125 -0.84375 C 16.566406 -0.28125 15.128906 0 13.640625 0 L 3.0625 0 L 3.0625 -25.078125 Z M 13.515625 -2.6875 C 16.140625 -2.6875 18.273438 -3.660156 19.921875 -5.609375 C 21.515625 -7.472656 22.3125 -9.78125 22.3125 -12.53125 C 22.3125 -15.289062 21.515625 -17.601562 19.921875 -19.46875 C 18.273438 -21.414062 16.140625 -22.390625 13.515625 -22.390625 L 5.90625 -22.390625 L 5.90625 -2.6875 Z M 13.515625 -2.6875 "/></g></g></g></svg>