<svg xmlns="http://www.w3.org/2000/svg" xmlns:xlink="http://www.w3.org/1999/xlink" width="100" zoomAndPan="magnify" viewBox="0 0 75 37.5" height="50" preserveAspectRatio="xMidYMid meet" version="1.0"><defs><g/><clipPath id="0c37ee6a5b"><path d="M 43 7 L 51 7 L 51 15 L 43 15 Z M 43 7 " clip-rule="nonzero"/></clipPath><clipPath id="9150df1553"><path d="M 47.007812 5.40625 L 51.988281 8.609375 L 46.78125 16.703125 L 41.800781 13.496094 Z M 47.007812 5.40625 " clip-rule="nonzero"/></clipPath><clipPath id="a821a331d1"><path d="M 47.007812 5.40625 L 51.988281 8.609375 L 46.78125 16.703125 L 41.800781 13.496094 Z M 47.007812 5.40625 " clip-rule="nonzero"/></clipPath><clipPath id="d8fed03e6e"><path d="M 47.007812 5.40625 L 51.988281 8.609375 L 46.78125 16.703125 L 41.800781 13.496094 Z M 47.007812 5.40625 " clip-rule="nonzero"/></clipPath><clipPath id="b0f6b53098"><path d="M 49.675781 12.042969 C 50.058594 11.300781 50.171875 10.4375 50.117188 9.59375 C 50.0625 8.746094 49.84375 7.914062 49.597656 7.09375 C 49.539062 7.664062 49.097656 8.125 48.582031 8.378906 C 48.0625 8.628906 47.476562 8.707031 46.898438 8.792969 C 46.320312 8.878906 45.734375 8.980469 45.238281 9.269531 C 44.691406 9.585938 43.613281 10.695312 44.195312 12.285156 C 44.726562 11.65625 44.925781 11.460938 45.441406 11.144531 C 45.953125 10.832031 46.546875 10.667969 47.113281 10.445312 C 47.675781 10.222656 48.234375 9.917969 48.554688 9.414062 C 48.335938 9.824219 47.949219 10.121094 47.542969 10.351562 C 47.132812 10.578125 46.691406 10.75 46.28125 10.980469 C 45.542969 11.398438 44.71875 12.132812 43.242188 14.425781 C 43.425781 14.160156 43.707031 13.949219 44.011719 13.820312 C 44.058594 13.800781 44.105469 13.785156 44.152344 13.769531 C 44.1875 13.757812 44.222656 13.746094 44.253906 13.738281 C 44.800781 13.582031 45.394531 13.609375 45.972656 13.652344 C 46.585938 13.699219 47.210938 13.753906 47.800781 13.601562 C 48.625 13.394531 49.296875 12.785156 49.675781 12.042969 Z M 49.675781 12.042969 " clip-rule="nonzero"/></clipPath><linearGradient x1="2460.78" gradientTransform="matrix(-0.00707472, -0.00455381, -0.00434118, 0.00674439, 67.02648, 18.291329)" y1="-36.642008" x2="2460.78" gradientUnits="userSpaceOnUse" y2="1199.599711" id="32b54e2d93"><stop stop-opacity="1" stop-color="rgb(49.859619%, 70.64209%, 25.431824%)" offset="0"/><stop stop-opacity="1" stop-color="rgb(49.713135%, 70.472717%, 25.418091%)" offset="0.125"/><stop stop-opacity="1" stop-color="rgb(49.420166%, 70.133972%, 25.392151%)" offset="0.25"/><stop stop-opacity="1" stop-color="rgb(49.128723%, 69.793701%, 25.364685%)" offset="0.375"/><stop stop-opacity="1" stop-color="rgb(48.83728%, 69.454956%, 25.337219%)" offset="0.5"/><stop stop-opacity="1" stop-color="rgb(48.544312%, 69.116211%, 25.311279%)" offset="0.625"/><stop stop-opacity="1" stop-color="rgb(48.252869%, 68.77594%, 25.283813%)" offset="0.75"/><stop stop-opacity="1" stop-color="rgb(47.961426%, 68.437195%, 25.256348%)" offset="0.875"/><stop stop-opacity="1" stop-color="rgb(47.668457%, 68.09845%, 25.228882%)" offset="1"/></linearGradient><clipPath id="615685bfb6"><path d="M 43 6 L 51 6 L 51 15 L 43 15 Z M 43 6 " clip-rule="nonzero"/></clipPath><clipPath id="0877e07c47"><path d="M 47.007812 5.40625 L 51.988281 8.609375 L 46.78125 16.703125 L 41.800781 13.496094 Z M 47.007812 5.40625 " clip-rule="nonzero"/></clipPath><clipPath id="6cd891b3fe"><path d="M 47.007812 5.40625 L 51.988281 8.609375 L 46.78125 16.703125 L 41.800781 13.496094 Z M 47.007812 5.40625 " clip-rule="nonzero"/></clipPath><clipPath id="0c890cbfa3"><path d="M 47.007812 5.40625 L 51.988281 8.609375 L 46.78125 16.703125 L 41.800781 13.496094 Z M 47.007812 5.40625 " clip-rule="nonzero"/></clipPath></defs><g fill="#fc7217" fill-opacity="0.4"><g transform="translate(13.667333, 25.87642)"><g><path d="M 3 -10.703125 C 2.757812 -10.492188 2.597656 -10.257812 2.515625 -10 C 2.429688 -9.75 2.390625 -9.476562 2.390625 -9.1875 C 2.390625 -8.90625 2.515625 -8.644531 2.765625 -8.40625 C 3.015625 -8.164062 3.34375 -7.960938 3.75 -7.796875 C 4.15625 -7.628906 4.617188 -7.484375 5.140625 -7.359375 C 5.660156 -7.234375 6.191406 -7.101562 6.734375 -6.96875 C 7.273438 -6.832031 7.804688 -6.675781 8.328125 -6.5 C 8.847656 -6.332031 9.316406 -6.113281 9.734375 -5.84375 C 10.628906 -5.269531 11.078125 -4.488281 11.078125 -3.5 C 11.078125 -2.3125 10.632812 -1.40625 9.75 -0.78125 C 8.863281 -0.15625 7.640625 0.15625 6.078125 0.15625 C 4.304688 0.15625 2.957031 -0.210938 2.03125 -0.953125 C 1.195312 -1.617188 0.722656 -2.5625 0.609375 -3.78125 L 2.109375 -3.78125 C 2.148438 -2.914062 2.566406 -2.253906 3.359375 -1.796875 C 4.046875 -1.398438 4.957031 -1.203125 6.09375 -1.203125 C 8.46875 -1.203125 9.65625 -1.945312 9.65625 -3.4375 C 9.65625 -3.945312 9.441406 -4.347656 9.015625 -4.640625 C 8.585938 -4.929688 8.050781 -5.171875 7.40625 -5.359375 C 6.757812 -5.554688 6.0625 -5.738281 5.3125 -5.90625 C 4.570312 -6.070312 3.878906 -6.285156 3.234375 -6.546875 C 2.597656 -6.804688 2.066406 -7.148438 1.640625 -7.578125 C 1.210938 -8.003906 1 -8.582031 1 -9.3125 C 1 -10.34375 1.390625 -11.179688 2.171875 -11.828125 C 2.960938 -12.472656 4.15625 -12.796875 5.75 -12.796875 C 7.351562 -12.796875 8.597656 -12.425781 9.484375 -11.6875 C 10.285156 -11.039062 10.710938 -10.207031 10.765625 -9.1875 L 9.28125 -9.1875 C 9.15625 -10.238281 8.484375 -10.9375 7.265625 -11.28125 C 6.828125 -11.40625 6.285156 -11.46875 5.640625 -11.46875 C 5.003906 -11.46875 4.460938 -11.394531 4.015625 -11.25 C 3.578125 -11.101562 3.238281 -10.921875 3 -10.703125 Z M 3 -10.703125 "/></g></g></g><g fill="#fc7217" fill-opacity="1"><g transform="translate(13.667333, 25.87642)"><g><path d="M 3 -10.703125 C 2.757812 -10.492188 2.597656 -10.257812 2.515625 -10 C 2.429688 -9.75 2.390625 -9.476562 2.390625 -9.1875 C 2.390625 -8.90625 2.515625 -8.644531 2.765625 -8.40625 C 3.015625 -8.164062 3.34375 -7.960938 3.75 -7.796875 C 4.15625 -7.628906 4.617188 -7.484375 5.140625 -7.359375 C 5.660156 -7.234375 6.191406 -7.101562 6.734375 -6.96875 C 7.273438 -6.832031 7.804688 -6.675781 8.328125 -6.5 C 8.847656 -6.332031 9.316406 -6.113281 9.734375 -5.84375 C 10.628906 -5.269531 11.078125 -4.488281 11.078125 -3.5 C 11.078125 -2.3125 10.632812 -1.40625 9.75 -0.78125 C 8.863281 -0.15625 7.640625 0.15625 6.078125 0.15625 C 4.304688 0.15625 2.957031 -0.210938 2.03125 -0.953125 C 1.195312 -1.617188 0.722656 -2.5625 0.609375 -3.78125 L 2.109375 -3.78125 C 2.148438 -2.914062 2.566406 -2.253906 3.359375 -1.796875 C 4.046875 -1.398438 4.957031 -1.203125 6.09375 -1.203125 C 8.46875 -1.203125 9.65625 -1.945312 9.65625 -3.4375 C 9.65625 -3.945312 9.441406 -4.347656 9.015625 -4.640625 C 8.585938 -4.929688 8.050781 -5.171875 7.40625 -5.359375 C 6.757812 -5.554688 6.0625 -5.738281 5.3125 -5.90625 C 4.570312 -6.070312 3.878906 -6.285156 3.234375 -6.546875 C 2.597656 -6.804688 2.066406 -7.148438 1.640625 -7.578125 C 1.210938 -8.003906 1 -8.582031 1 -9.3125 C 1 -10.34375 1.390625 -11.179688 2.171875 -11.828125 C 2.960938 -12.472656 4.15625 -12.796875 5.75 -12.796875 C 7.351562 -12.796875 8.597656 -12.425781 9.484375 -11.6875 C 10.285156 -11.039062 10.710938 -10.207031 10.765625 -9.1875 L 9.28125 -9.1875 C 9.15625 -10.238281 8.484375 -10.9375 7.265625 -11.28125 C 6.828125 -11.40625 6.285156 -11.46875 5.640625 -11.46875 C 5.003906 -11.46875 4.460938 -11.394531 4.015625 -11.25 C 3.578125 -11.101562 3.238281 -10.921875 3 -10.703125 Z M 3 -10.703125 "/></g></g></g><g fill="#d9d9d9" fill-opacity="1"><g transform="translate(25.387628, 25.425799)"><g><path d="M 8.6875 0 L 7.59375 0 L 6.53125 -2.53125 L 2.203125 -2.53125 L 1.140625 0 L 0.046875 0 L 3.75 -8.734375 L 4.984375 -8.734375 Z M 6.140625 -3.4375 L 4.359375 -7.703125 L 2.578125 -3.4375 Z M 6.140625 -3.4375 "/></g></g></g><g fill="#d9d9d9" fill-opacity="1"><g transform="translate(32.865784, 25.425799)"><g/></g></g><g fill="#d9d9d9" fill-opacity="1"><g transform="translate(34.421931, 25.425799)"><g><path d="M 2.0625 -8.734375 L 2.0625 -0.953125 L 6.8125 -0.953125 L 6.8125 0 L 1.0625 0 L 1.0625 -8.734375 Z M 2.0625 -8.734375 "/></g></g></g><g fill="#d9d9d9" fill-opacity="1"><g transform="translate(40.198662, 25.425799)"><g><path d="M 4.9375 -8.828125 C 6.238281 -8.828125 7.3125 -8.394531 8.15625 -7.53125 C 8.96875 -6.6875 9.375 -5.628906 9.375 -4.359375 C 9.375 -3.097656 8.96875 -2.046875 8.15625 -1.203125 C 7.3125 -0.328125 6.238281 0.109375 4.9375 0.109375 C 3.644531 0.109375 2.578125 -0.328125 1.734375 -1.203125 C 0.921875 -2.046875 0.515625 -3.097656 0.515625 -4.359375 C 0.515625 -5.628906 0.921875 -6.6875 1.734375 -7.53125 C 2.578125 -8.394531 3.644531 -8.828125 4.9375 -8.828125 Z M 4.9375 -0.859375 C 5.976562 -0.859375 6.820312 -1.195312 7.46875 -1.875 C 8.082031 -2.519531 8.390625 -3.347656 8.390625 -4.359375 C 8.390625 -5.367188 8.082031 -6.203125 7.46875 -6.859375 C 6.820312 -7.535156 5.976562 -7.875 4.9375 -7.875 C 3.90625 -7.875 3.066406 -7.535156 2.421875 -6.859375 C 1.804688 -6.203125 1.5 -5.367188 1.5 -4.359375 C 1.5 -3.347656 1.804688 -2.519531 2.421875 -1.875 C 3.066406 -1.195312 3.90625 -0.859375 4.9375 -0.859375 Z M 4.9375 -0.859375 "/></g></g></g><g clip-path="url(#0c37ee6a5b)"><g clip-path="url(#9150df1553)"><g clip-path="url(#a821a331d1)"><g clip-path="url(#d8fed03e6e)"><g clip-path="url(#b0f6b53098)"><path fill="url(#32b54e2d93)" d="M 53.507812 9.242188 L 48.140625 17.578125 L 39.90625 12.277344 L 45.273438 3.9375 Z M 53.507812 9.242188 " fill-rule="nonzero"/></g></g></g></g></g><g clip-path="url(#615685bfb6)"><g clip-path="url(#0877e07c47)"><g clip-path="url(#6cd891b3fe)"><g clip-path="url(#0c890cbfa3)"><path stroke-linecap="butt" transform="matrix(0.00707472, 0.00455381, -0.00434118, 0.00674439, 47.302294, 5.595393)" fill="none" stroke-linejoin="miter" d="M 651.977984 515.775467 C 642.492192 412.135114 598.279248 313.987791 538.535751 229.22262 C 478.540967 144.047932 403.154739 71.582285 325.789606 2.190349 C 356.621565 65.933633 342.158776 144.04274 306.960277 205.455787 C 271.120096 266.722913 217.586576 314.452436 165.33642 362.473802 C 113.086264 410.495168 61.060465 460.681788 30.075523 524.462508 C -4.225547 594.536572 -40.609107 783.591296 119.833516 910.98878 C 132.470055 809.2078 139.815858 775.288663 170.993768 707.323356 C 202.032569 640.031161 250.818567 582.765092 293.102498 521.201444 C 334.996033 459.90139 371.222148 390.26509 370.818535 315.82274 C 375.341534 373.583241 355.790227 430.802342 330.015068 482.377642 C 303.598227 533.807021 270.540209 581.61193 244.374654 633.450824 C 197.477686 727.088447 162.346264 859.695964 162.282334 1199.720749 C 163.543393 1159.484699 178.082345 1118.392009 200.240692 1084.317592 C 203.668998 1079.106875 207.348591 1074.305674 211.028184 1069.504473 C 213.787879 1065.903573 216.547574 1062.302672 219.168161 1059.374883 C 263.771992 1006.090983 324.871048 968.891207 385.413671 934.383876 C 449.721137 897.913708 515.702361 861.471789 564.851825 805.697864 C 633.906976 728.375032 661.854171 619.152225 651.977984 515.775467 Z M 651.977984 515.775467 " stroke="#ffffff" stroke-width="1" stroke-opacity="1" stroke-miterlimit="10"/></g></g></g></g><g fill="#d9d9d9" fill-opacity="1"><g transform="translate(1.779378, 25.76202)"><g><path d="M 12.515625 0 L 10.9375 0 L 9.390625 -3.640625 L 3.171875 -3.640625 L 1.625 0 L 0.0625 0 L 5.390625 -12.5625 L 7.171875 -12.5625 Z M 8.84375 -4.953125 L 6.28125 -11.09375 L 3.71875 -4.953125 Z M 8.84375 -4.953125 "/></g></g></g><g fill="#8cc342" fill-opacity="0.4"><g transform="translate(26.641408, 14.312576)"><g><path d="M 1.90625 -4.34375 C 1.664062 -4.34375 1.484375 -4.285156 1.359375 -4.171875 C 1.242188 -4.066406 1.1875 -3.898438 1.1875 -3.671875 L 1.1875 -3.40625 L 1.96875 -3.40625 L 1.96875 -2.953125 L 1.1875 -2.953125 L 1.1875 0 L 0.671875 0 L 0.671875 -2.953125 L 0.09375 -2.953125 L 0.09375 -3.40625 L 0.671875 -3.40625 L 0.671875 -3.703125 C 0.671875 -4.078125 0.78125 -4.359375 1 -4.546875 C 1.226562 -4.734375 1.539062 -4.828125 1.9375 -4.828125 L 1.96875 -4.828125 L 1.96875 -4.34375 Z M 1.90625 -4.34375 "/></g></g></g><g fill="#8cc342" fill-opacity="0.4"><g transform="translate(28.732622, 14.312576)"><g><path d="M 1.921875 -3.453125 C 2.429688 -3.453125 2.84375 -3.285156 3.15625 -2.953125 C 3.457031 -2.617188 3.609375 -2.203125 3.609375 -1.703125 C 3.609375 -1.203125 3.457031 -0.785156 3.15625 -0.453125 C 2.84375 -0.117188 2.429688 0.046875 1.921875 0.046875 C 1.410156 0.046875 1 -0.117188 0.6875 -0.453125 C 0.382812 -0.785156 0.234375 -1.203125 0.234375 -1.703125 C 0.234375 -2.203125 0.382812 -2.617188 0.6875 -2.953125 C 1 -3.285156 1.410156 -3.453125 1.921875 -3.453125 Z M 1.921875 -0.40625 C 2.285156 -0.40625 2.578125 -0.535156 2.796875 -0.796875 C 2.992188 -1.035156 3.09375 -1.335938 3.09375 -1.703125 C 3.09375 -2.066406 2.992188 -2.367188 2.796875 -2.609375 C 2.578125 -2.867188 2.285156 -3 1.921875 -3 C 1.554688 -3 1.265625 -2.867188 1.046875 -2.609375 C 0.847656 -2.367188 0.75 -2.066406 0.75 -1.703125 C 0.75 -1.335938 0.847656 -1.035156 1.046875 -0.796875 C 1.265625 -0.535156 1.554688 -0.40625 1.921875 -0.40625 Z M 1.921875 -0.40625 "/></g></g></g><g fill="#8cc342" fill-opacity="0.4"><g transform="translate(32.574463, 14.312576)"><g><path d="M 1.921875 -3.453125 C 2.429688 -3.453125 2.84375 -3.285156 3.15625 -2.953125 C 3.457031 -2.617188 3.609375 -2.203125 3.609375 -1.703125 C 3.609375 -1.203125 3.457031 -0.785156 3.15625 -0.453125 C 2.84375 -0.117188 2.429688 0.046875 1.921875 0.046875 C 1.410156 0.046875 1 -0.117188 0.6875 -0.453125 C 0.382812 -0.785156 0.234375 -1.203125 0.234375 -1.703125 C 0.234375 -2.203125 0.382812 -2.617188 0.6875 -2.953125 C 1 -3.285156 1.410156 -3.453125 1.921875 -3.453125 Z M 1.921875 -0.40625 C 2.285156 -0.40625 2.578125 -0.535156 2.796875 -0.796875 C 2.992188 -1.035156 3.09375 -1.335938 3.09375 -1.703125 C 3.09375 -2.066406 2.992188 -2.367188 2.796875 -2.609375 C 2.578125 -2.867188 2.285156 -3 1.921875 -3 C 1.554688 -3 1.265625 -2.867188 1.046875 -2.609375 C 0.847656 -2.367188 0.75 -2.066406 0.75 -1.703125 C 0.75 -1.335938 0.847656 -1.035156 1.046875 -0.796875 C 1.265625 -0.535156 1.554688 -0.40625 1.921875 -0.40625 Z M 1.921875 -0.40625 "/></g></g></g><g fill="#8cc342" fill-opacity="0.4"><g transform="translate(36.416304, 14.312576)"><g><path d="M 3.09375 -0.546875 C 2.820312 -0.148438 2.414062 0.046875 1.875 0.046875 C 1.382812 0.046875 0.988281 -0.117188 0.6875 -0.453125 C 0.382812 -0.785156 0.234375 -1.203125 0.234375 -1.703125 C 0.234375 -2.203125 0.382812 -2.617188 0.6875 -2.953125 C 0.988281 -3.285156 1.394531 -3.453125 1.90625 -3.453125 C 2.425781 -3.453125 2.820312 -3.253906 3.09375 -2.859375 L 3.09375 -4.765625 L 3.609375 -4.765625 L 3.609375 0 L 3.09375 0 Z M 1.953125 -0.40625 C 2.316406 -0.40625 2.609375 -0.535156 2.828125 -0.796875 C 3.023438 -1.035156 3.125 -1.335938 3.125 -1.703125 C 3.125 -2.066406 3.023438 -2.367188 2.828125 -2.609375 C 2.609375 -2.867188 2.316406 -3 1.953125 -3 C 1.585938 -3 1.289062 -2.867188 1.0625 -2.609375 C 0.851562 -2.367188 0.75 -2.066406 0.75 -1.703125 C 0.75 -1.335938 0.851562 -1.035156 1.0625 -0.796875 C 1.289062 -0.535156 1.585938 -0.40625 1.953125 -0.40625 Z M 1.953125 -0.40625 "/></g></g></g><g fill="#8cc342" fill-opacity="1"><g transform="translate(26.641408, 14.312576)"><g><path d="M 1.90625 -4.34375 C 1.664062 -4.34375 1.484375 -4.285156 1.359375 -4.171875 C 1.242188 -4.066406 1.1875 -3.898438 1.1875 -3.671875 L 1.1875 -3.40625 L 1.96875 -3.40625 L 1.96875 -2.953125 L 1.1875 -2.953125 L 1.1875 0 L 0.671875 0 L 0.671875 -2.953125 L 0.09375 -2.953125 L 0.09375 -3.40625 L 0.671875 -3.40625 L 0.671875 -3.703125 C 0.671875 -4.078125 0.78125 -4.359375 1 -4.546875 C 1.226562 -4.734375 1.539062 -4.828125 1.9375 -4.828125 L 1.96875 -4.828125 L 1.96875 -4.34375 Z M 1.90625 -4.34375 "/></g></g></g><g fill="#8cc342" fill-opacity="1"><g transform="translate(28.732622, 14.312576)"><g><path d="M 1.921875 -3.453125 C 2.429688 -3.453125 2.84375 -3.285156 3.15625 -2.953125 C 3.457031 -2.617188 3.609375 -2.203125 3.609375 -1.703125 C 3.609375 -1.203125 3.457031 -0.785156 3.15625 -0.453125 C 2.84375 -0.117188 2.429688 0.046875 1.921875 0.046875 C 1.410156 0.046875 1 -0.117188 0.6875 -0.453125 C 0.382812 -0.785156 0.234375 -1.203125 0.234375 -1.703125 C 0.234375 -2.203125 0.382812 -2.617188 0.6875 -2.953125 C 1 -3.285156 1.410156 -3.453125 1.921875 -3.453125 Z M 1.921875 -0.40625 C 2.285156 -0.40625 2.578125 -0.535156 2.796875 -0.796875 C 2.992188 -1.035156 3.09375 -1.335938 3.09375 -1.703125 C 3.09375 -2.066406 2.992188 -2.367188 2.796875 -2.609375 C 2.578125 -2.867188 2.285156 -3 1.921875 -3 C 1.554688 -3 1.265625 -2.867188 1.046875 -2.609375 C 0.847656 -2.367188 0.75 -2.066406 0.75 -1.703125 C 0.75 -1.335938 0.847656 -1.035156 1.046875 -0.796875 C 1.265625 -0.535156 1.554688 -0.40625 1.921875 -0.40625 Z M 1.921875 -0.40625 "/></g></g></g><g fill="#8cc342" fill-opacity="1"><g transform="translate(32.574463, 14.312576)"><g><path d="M 1.921875 -3.453125 C 2.429688 -3.453125 2.84375 -3.285156 3.15625 -2.953125 C 3.457031 -2.617188 3.609375 -2.203125 3.609375 -1.703125 C 3.609375 -1.203125 3.457031 -0.785156 3.15625 -0.453125 C 2.84375 -0.117188 2.429688 0.046875 1.921875 0.046875 C 1.410156 0.046875 1 -0.117188 0.6875 -0.453125 C 0.382812 -0.785156 0.234375 -1.203125 0.234375 -1.703125 C 0.234375 -2.203125 0.382812 -2.617188 0.6875 -2.953125 C 1 -3.285156 1.410156 -3.453125 1.921875 -3.453125 Z M 1.921875 -0.40625 C 2.285156 -0.40625 2.578125 -0.535156 2.796875 -0.796875 C 2.992188 -1.035156 3.09375 -1.335938 3.09375 -1.703125 C 3.09375 -2.066406 2.992188 -2.367188 2.796875 -2.609375 C 2.578125 -2.867188 2.285156 -3 1.921875 -3 C 1.554688 -3 1.265625 -2.867188 1.046875 -2.609375 C 0.847656 -2.367188 0.75 -2.066406 0.75 -1.703125 C 0.75 -1.335938 0.847656 -1.035156 1.046875 -0.796875 C 1.265625 -0.535156 1.554688 -0.40625 1.921875 -0.40625 Z M 1.921875 -0.40625 "/></g></g></g><g fill="#8cc342" fill-opacity="1"><g transform="translate(36.416304, 14.312576)"><g><path d="M 3.09375 -0.546875 C 2.820312 -0.148438 2.414062 0.046875 1.875 0.046875 C 1.382812 0.046875 0.988281 -0.117188 0.6875 -0.453125 C 0.382812 -0.785156 0.234375 -1.203125 0.234375 -1.703125 C 0.234375 -2.203125 0.382812 -2.617188 0.6875 -2.953125 C 0.988281 -3.285156 1.394531 -3.453125 1.90625 -3.453125 C 2.425781 -3.453125 2.820312 -3.253906 3.09375 -2.859375 L 3.09375 -4.765625 L 3.609375 -4.765625 L 3.609375 0 L 3.09375 0 Z M 1.953125 -0.40625 C 2.316406 -0.40625 2.609375 -0.535156 2.828125 -0.796875 C 3.023438 -1.035156 3.125 -1.335938 3.125 -1.703125 C 3.125 -2.066406 3.023438 -2.367188 2.828125 -2.609375 C 2.609375 -2.867188 2.316406 -3 1.953125 -3 C 1.585938 -3 1.289062 -2.867188 1.0625 -2.609375 C 0.851562 -2.367188 0.75 -2.066406 0.75 -1.703125 C 0.75 -1.335938 0.851562 -1.035156 1.0625 -0.796875 C 1.289062 -0.535156 1.585938 -0.40625 1.953125 -0.40625 Z M 1.953125 -0.40625 "/></g></g></g><g fill="#d9d9d9" fill-opacity="1"><g transform="translate(61.456025, 25.76202)"><g><path d="M 12.515625 0 L 10.9375 0 L 9.390625 -3.640625 L 3.171875 -3.640625 L 1.625 0 L 0.0625 0 L 5.390625 -12.5625 L 7.171875 -12.5625 Z M 8.84375 -4.953125 L 6.28125 -11.09375 L 3.71875 -4.953125 Z M 8.84375 -4.953125 "/></g></g></g><g fill="#fc7217" fill-opacity="0.4"><g transform="translate(49.371035, 25.914512)"><g><path d="M 6.828125 -12.5625 C 7.578125 -12.5625 8.300781 -12.421875 9 -12.140625 C 9.695312 -11.859375 10.3125 -11.441406 10.84375 -10.890625 C 12.019531 -9.691406 12.609375 -8.15625 12.609375 -6.28125 C 12.609375 -4.40625 12.019531 -2.867188 10.84375 -1.671875 C 10.3125 -1.128906 9.695312 -0.710938 9 -0.421875 C 8.300781 -0.140625 7.578125 0 6.828125 0 L 1.53125 0 L 1.53125 -12.5625 Z M 6.78125 -1.34375 C 8.09375 -1.34375 9.160156 -1.832031 9.984375 -2.8125 C 10.785156 -3.75 11.1875 -4.90625 11.1875 -6.28125 C 11.1875 -7.664062 10.785156 -8.828125 9.984375 -9.765625 C 9.160156 -10.734375 8.09375 -11.21875 6.78125 -11.21875 L 2.96875 -11.21875 L 2.96875 -1.34375 Z M 6.78125 -1.34375 "/></g></g></g><g fill="#fc7217" fill-opacity="1"><g transform="translate(49.371035, 25.914512)"><g><path d="M 6.828125 -12.5625 C 7.578125 -12.5625 8.300781 -12.421875 9 -12.140625 C 9.695312 -11.859375 10.3125 -11.441406 10.84375 -10.890625 C 12.019531 -9.691406 12.609375 -8.15625 12.609375 -6.28125 C 12.609375 -4.40625 12.019531 -2.867188 10.84375 -1.671875 C 10.3125 -1.128906 9.695312 -0.710938 9 -0.421875 C 8.300781 -0.140625 7.578125 0 6.828125 0 L 1.53125 0 L 1.53125 -12.5625 Z M 6.78125 -1.34375 C 8.09375 -1.34375 9.160156 -1.832031 9.984375 -2.8125 C 10.785156 -3.75 11.1875 -4.90625 11.1875 -6.28125 C 11.1875 -7.664062 10.785156 -8.828125 9.984375 -9.765625 C 9.160156 -10.734375 8.09375 -11.21875 6.78125 -11.21875 L 2.96875 -11.21875 L 2.96875 -1.34375 Z M 6.78125 -1.34375 "/></g></g></g></svg>