<svg xmlns="http://www.w3.org/2000/svg" xmlns:xlink="http://www.w3.org/1999/xlink" width="500" zoomAndPan="magnify" viewBox="0 0 375 374.999991" height="500" preserveAspectRatio="xMidYMid meet" version="1.0"><defs><g/><clipPath id="90fd2e271e"><path d="M 215 130 L 251 130 L 251 169 L 215 169 Z M 215 130 " clip-rule="nonzero"/></clipPath><clipPath id="540ffead79"><path d="M 235.679688 121.878906 L 260.273438 137.707031 L 233.078125 179.960938 L 208.480469 164.128906 Z M 235.679688 121.878906 " clip-rule="nonzero"/></clipPath><clipPath id="f6cb997f70"><path d="M 235.679688 121.878906 L 260.273438 137.707031 L 233.078125 179.960938 L 208.480469 164.128906 Z M 235.679688 121.878906 " clip-rule="nonzero"/></clipPath><clipPath id="f286905afd"><path d="M 235.679688 121.878906 L 260.273438 137.707031 L 233.078125 179.960938 L 208.480469 164.128906 Z M 235.679688 121.878906 " clip-rule="nonzero"/></clipPath><clipPath id="7740f6a1c0"><path d="M 248.234375 155.644531 C 250.246094 151.78125 250.921875 147.335938 250.753906 142.992188 C 250.589844 138.652344 249.605469 134.394531 248.464844 130.210938 C 248.105469 133.152344 245.828125 135.582031 243.199219 136.945312 C 240.566406 138.304688 237.597656 138.789062 234.6875 139.308594 C 231.78125 139.820312 228.808594 140.421875 226.28125 141.964844 C 223.511719 143.660156 217.9375 149.492188 220.660156 157.597656 C 223.414062 154.304688 224.4375 153.253906 227.058594 151.578125 C 229.679688 149.902344 232.691406 148.980469 235.546875 147.761719 C 238.40625 146.542969 241.25 144.90625 242.921875 142.28125 C 241.773438 144.417969 239.804688 145.996094 237.71875 147.222656 C 235.632812 148.449219 233.390625 149.390625 231.3125 150.625 C 227.546875 152.855469 223.308594 156.738281 215.605469 168.714844 C 216.5625 167.328125 217.988281 166.21875 219.554688 165.511719 C 219.785156 165.40625 220.019531 165.3125 220.253906 165.226562 C 220.425781 165.164062 220.605469 165.101562 220.777344 165.046875 C 223.539062 164.175781 226.515625 164.253906 229.40625 164.398438 C 232.488281 164.546875 235.632812 164.75 238.605469 163.902344 C 242.773438 162.71875 246.21875 159.503906 248.234375 155.644531 Z M 248.234375 155.644531 " clip-rule="nonzero"/></clipPath><linearGradient x1="2460.78" gradientTransform="matrix(-0.0349573, -0.0225011, -0.0226721, 0.035223, 334.588676, 185.542326)" y1="-29.62949" x2="2460.78" gradientUnits="userSpaceOnUse" y2="1199.59992" id="5afb0d2952"><stop stop-opacity="1" stop-color="rgb(49.845886%, 70.626831%, 25.431824%)" offset="0"/><stop stop-opacity="1" stop-color="rgb(49.700928%, 70.457458%, 25.418091%)" offset="0.125"/><stop stop-opacity="1" stop-color="rgb(49.411011%, 70.120239%, 25.390625%)" offset="0.25"/><stop stop-opacity="1" stop-color="rgb(49.119568%, 69.78302%, 25.363159%)" offset="0.375"/><stop stop-opacity="1" stop-color="rgb(48.829651%, 69.445801%, 25.337219%)" offset="0.5"/><stop stop-opacity="1" stop-color="rgb(48.539734%, 69.108582%, 25.309753%)" offset="0.625"/><stop stop-opacity="1" stop-color="rgb(48.249817%, 68.771362%, 25.283813%)" offset="0.75"/><stop stop-opacity="1" stop-color="rgb(47.958374%, 68.434143%, 25.256348%)" offset="0.875"/><stop stop-opacity="1" stop-color="rgb(47.668457%, 68.096924%, 25.228882%)" offset="1"/></linearGradient><clipPath id="925e012c98"><path d="M 215 129 L 252 129 L 252 170 L 215 170 Z M 215 129 " clip-rule="nonzero"/></clipPath><clipPath id="2c74cf2329"><path d="M 235.679688 121.878906 L 260.273438 137.707031 L 233.078125 179.960938 L 208.480469 164.128906 Z M 235.679688 121.878906 " clip-rule="nonzero"/></clipPath><clipPath id="66fb5c7c77"><path d="M 235.679688 121.878906 L 260.273438 137.707031 L 233.078125 179.960938 L 208.480469 164.128906 Z M 235.679688 121.878906 " clip-rule="nonzero"/></clipPath><clipPath id="e4b3cf3a22"><path d="M 235.679688 121.878906 L 260.273438 137.707031 L 233.078125 179.960938 L 208.480469 164.128906 Z M 235.679688 121.878906 " clip-rule="nonzero"/></clipPath></defs><g fill="#fc7217" fill-opacity="0.4"><g transform="translate(66.747825, 225.591596)"><g><path d="M 15.203125 -54.265625 C 13.972656 -53.203125 13.148438 -52.023438 12.734375 -50.734375 C 12.316406 -49.441406 12.109375 -48.066406 12.109375 -46.609375 C 12.109375 -45.160156 12.734375 -43.820312 13.984375 -42.59375 C 15.242188 -41.375 16.90625 -40.34375 18.96875 -39.5 C 21.039062 -38.664062 23.398438 -37.925781 26.046875 -37.28125 C 28.691406 -36.632812 31.382812 -35.972656 34.125 -35.296875 C 36.875 -34.617188 39.570312 -33.84375 42.21875 -32.96875 C 44.863281 -32.09375 47.21875 -30.976562 49.28125 -29.625 C 53.863281 -26.71875 56.15625 -22.75 56.15625 -17.71875 C 56.15625 -11.71875 53.910156 -7.132812 49.421875 -3.96875 C 44.941406 -0.800781 38.734375 0.78125 30.796875 0.78125 C 21.816406 0.78125 14.972656 -1.09375 10.265625 -4.84375 C 6.066406 -8.195312 3.675781 -12.972656 3.09375 -19.171875 L 10.65625 -19.171875 C 10.90625 -14.785156 13.035156 -11.429688 17.046875 -9.109375 C 20.523438 -7.097656 25.140625 -6.09375 30.890625 -6.09375 C 42.890625 -6.09375 48.890625 -9.867188 48.890625 -17.421875 C 48.890625 -20.003906 47.804688 -22.035156 45.640625 -23.515625 C 43.484375 -25.003906 40.773438 -26.234375 37.515625 -27.203125 C 34.253906 -28.171875 30.734375 -29.070312 26.953125 -29.90625 C 23.179688 -30.75 19.664062 -31.832031 16.40625 -33.15625 C 13.144531 -34.488281 10.429688 -36.234375 8.265625 -38.390625 C 6.109375 -40.554688 5.03125 -43.476562 5.03125 -47.15625 C 5.03125 -52.382812 7.03125 -56.644531 11.03125 -59.9375 C 15.039062 -63.226562 21.078125 -64.875 29.140625 -64.875 C 37.273438 -64.875 43.570312 -63.003906 48.03125 -59.265625 C 52.09375 -55.972656 54.253906 -51.742188 54.515625 -46.578125 L 47.0625 -46.578125 C 46.414062 -51.867188 42.992188 -55.382812 36.796875 -57.125 C 34.597656 -57.769531 31.867188 -58.09375 28.609375 -58.09375 C 25.347656 -58.09375 22.601562 -57.722656 20.375 -56.984375 C 18.15625 -56.242188 16.429688 -55.335938 15.203125 -54.265625 Z M 15.203125 -54.265625 "/></g></g></g><g fill="#fc7217" fill-opacity="1"><g transform="translate(66.747825, 225.591596)"><g><path d="M 15.203125 -54.265625 C 13.972656 -53.203125 13.148438 -52.023438 12.734375 -50.734375 C 12.316406 -49.441406 12.109375 -48.066406 12.109375 -46.609375 C 12.109375 -45.160156 12.734375 -43.820312 13.984375 -42.59375 C 15.242188 -41.375 16.90625 -40.34375 18.96875 -39.5 C 21.039062 -38.664062 23.398438 -37.925781 26.046875 -37.28125 C 28.691406 -36.632812 31.382812 -35.972656 34.125 -35.296875 C 36.875 -34.617188 39.570312 -33.84375 42.21875 -32.96875 C 44.863281 -32.09375 47.21875 -30.976562 49.28125 -29.625 C 53.863281 -26.71875 56.15625 -22.75 56.15625 -17.71875 C 56.15625 -11.71875 53.910156 -7.132812 49.421875 -3.96875 C 44.941406 -0.800781 38.734375 0.78125 30.796875 0.78125 C 21.816406 0.78125 14.972656 -1.09375 10.265625 -4.84375 C 6.066406 -8.195312 3.675781 -12.972656 3.09375 -19.171875 L 10.65625 -19.171875 C 10.90625 -14.785156 13.035156 -11.429688 17.046875 -9.109375 C 20.523438 -7.097656 25.140625 -6.09375 30.890625 -6.09375 C 42.890625 -6.09375 48.890625 -9.867188 48.890625 -17.421875 C 48.890625 -20.003906 47.804688 -22.035156 45.640625 -23.515625 C 43.484375 -25.003906 40.773438 -26.234375 37.515625 -27.203125 C 34.253906 -28.171875 30.734375 -29.070312 26.953125 -29.90625 C 23.179688 -30.75 19.664062 -31.832031 16.40625 -33.15625 C 13.144531 -34.488281 10.429688 -36.234375 8.265625 -38.390625 C 6.109375 -40.554688 5.03125 -43.476562 5.03125 -47.15625 C 5.03125 -52.382812 7.03125 -56.644531 11.03125 -59.9375 C 15.039062 -63.226562 21.078125 -64.875 29.140625 -64.875 C 37.273438 -64.875 43.570312 -63.003906 48.03125 -59.265625 C 52.09375 -55.972656 54.253906 -51.742188 54.515625 -46.578125 L 47.0625 -46.578125 C 46.414062 -51.867188 42.992188 -55.382812 36.796875 -57.125 C 34.597656 -57.769531 31.867188 -58.09375 28.609375 -58.09375 C 25.347656 -58.09375 22.601562 -57.722656 20.375 -56.984375 C 18.15625 -56.242188 16.429688 -55.335938 15.203125 -54.265625 Z M 15.203125 -54.265625 "/></g></g></g><g fill="#474747" fill-opacity="1"><g transform="translate(126.130659, 223.308428)"><g><path d="M 44.046875 0 L 38.5 0 L 33.078125 -12.828125 L 11.15625 -12.828125 L 5.75 0 L 0.203125 0 L 18.984375 -44.234375 L 25.265625 -44.234375 Z M 31.140625 -17.4375 L 22.125 -39.03125 L 13.09375 -17.4375 Z M 31.140625 -17.4375 "/></g></g></g><g fill="#474747" fill-opacity="1"><g transform="translate(164.01998, 223.308428)"><g/></g></g><g fill="#474747" fill-opacity="1"><g transform="translate(171.904457, 223.308428)"><g><path d="M 10.421875 -44.234375 L 10.421875 -4.8125 L 34.546875 -4.8125 L 34.546875 0 L 5.40625 0 L 5.40625 -44.234375 Z M 10.421875 -44.234375 "/></g></g></g><g fill="#474747" fill-opacity="1"><g transform="translate(201.173226, 223.308428)"><g><path d="M 25.0625 -44.78125 C 31.65625 -44.78125 37.066406 -42.570312 41.296875 -38.15625 C 45.441406 -33.882812 47.515625 -28.539062 47.515625 -22.125 C 47.515625 -15.707031 45.441406 -10.359375 41.296875 -6.078125 C 37.066406 -1.671875 31.65625 0.53125 25.0625 0.53125 C 18.46875 0.53125 13.054688 -1.671875 8.828125 -6.078125 C 4.679688 -10.359375 2.609375 -15.707031 2.609375 -22.125 C 2.609375 -28.539062 4.679688 -33.882812 8.828125 -38.15625 C 13.054688 -42.570312 18.46875 -44.78125 25.0625 -44.78125 Z M 25.0625 -4.34375 C 30.320312 -4.34375 34.578125 -6.054688 37.828125 -9.484375 C 40.941406 -12.785156 42.5 -17 42.5 -22.125 C 42.5 -27.25 40.941406 -31.457031 37.828125 -34.75 C 34.578125 -38.175781 30.320312 -39.890625 25.0625 -39.890625 C 19.800781 -39.890625 15.546875 -38.175781 12.296875 -34.75 C 9.179688 -31.457031 7.625 -27.25 7.625 -22.125 C 7.625 -17 9.179688 -12.785156 12.296875 -9.484375 C 15.546875 -6.054688 19.800781 -4.34375 25.0625 -4.34375 Z M 25.0625 -4.34375 "/></g></g></g><g clip-path="url(#90fd2e271e)"><g clip-path="url(#540ffead79)"><g clip-path="url(#f6cb997f70)"><g clip-path="url(#f286905afd)"><g clip-path="url(#7740f6a1c0)"><path fill="url(#5afb0d2952)" d="M 268.445312 141.492188 L 240.574219 184.789062 L 198.082031 157.4375 L 225.949219 114.140625 Z M 268.445312 141.492188 " fill-rule="nonzero"/></g></g></g></g></g><g clip-path="url(#925e012c98)"><g clip-path="url(#2c74cf2329)"><g clip-path="url(#66fb5c7c77)"><g clip-path="url(#e4b3cf3a22)"><path stroke-linecap="butt" transform="matrix(0.0349573, 0.0225011, -0.0226721, 0.035223, 237.128367, 122.809722)" fill="none" stroke-linejoin="miter" d="M 652.112834 515.616308 C 642.505917 412.072757 598.300455 314.107206 538.351337 229.082401 C 478.532085 144.085536 403.188951 71.334519 325.651726 2.092237 C 356.67739 65.780578 342.247599 143.97872 306.823357 205.312652 C 271.269251 266.618643 217.528669 314.700767 165.430921 362.731522 C 113.310471 410.554979 61.016556 461.039961 29.985915 524.668606 C -3.959895 594.484634 -40.777669 783.578985 119.817436 911.106519 C 132.647155 809.421516 139.667237 775.104718 170.864991 707.598701 C 202.062744 640.092684 250.976566 582.673123 292.864987 521.313076 C 334.832417 459.902556 371.042232 390.303748 370.682861 316.008166 C 375.272431 373.738855 355.997755 430.85568 329.775785 482.429516 C 303.553816 534.003351 270.459014 581.871938 244.496773 633.501655 C 197.370967 726.930676 162.19713 859.635486 162.31584 1199.580673 C 163.619167 1159.378396 178.01432 1118.686761 200.491948 1084.25465 C 203.78036 1079.159638 207.300349 1074.249393 210.922049 1069.495973 C 213.584744 1066.020588 216.405456 1062.444257 219.169862 1059.125697 C 263.688244 1005.955729 324.910091 969.064115 385.258294 934.615909 C 449.528785 897.772975 515.775399 861.220264 564.865394 805.795271 C 633.758485 728.182256 661.589886 619.131918 652.112834 515.616308 Z M 652.112834 515.616308 " stroke="#ffffff" stroke-width="1" stroke-opacity="1" stroke-miterlimit="10"/></g></g></g></g><g fill="#474747" fill-opacity="1"><g transform="translate(6.51552, 225.011946)"><g><path d="M 63.390625 0 L 55.40625 0 L 47.609375 -18.46875 L 16.0625 -18.46875 L 8.265625 0 L 0.28125 0 L 27.3125 -63.671875 L 36.359375 -63.671875 Z M 44.828125 -25.109375 L 31.84375 -56.171875 L 18.859375 -25.109375 Z M 44.828125 -25.109375 "/></g></g></g><g fill="#8cc342" fill-opacity="0.4"><g transform="translate(132.483145, 167.001441)"><g><path d="M 9.671875 -21.984375 C 8.441406 -21.984375 7.519531 -21.710938 6.90625 -21.171875 C 6.300781 -20.628906 6 -19.757812 6 -18.5625 L 6 -17.25 L 10.015625 -17.25 L 10.015625 -14.984375 L 6 -14.984375 L 6 0 L 3.421875 0 L 3.421875 -14.984375 L 0.453125 -14.984375 L 0.453125 -17.25 L 3.421875 -17.25 L 3.421875 -18.78125 C 3.421875 -20.664062 3.984375 -22.078125 5.109375 -23.015625 C 6.234375 -23.960938 7.796875 -24.4375 9.796875 -24.4375 L 10.015625 -24.4375 L 10.015625 -21.984375 Z M 9.671875 -21.984375 "/></g></g></g><g fill="#8cc342" fill-opacity="0.4"><g transform="translate(143.078629, 167.001441)"><g><path d="M 9.734375 -17.53125 C 12.304688 -17.53125 14.398438 -16.664062 16.015625 -14.9375 C 17.535156 -13.28125 18.296875 -11.175781 18.296875 -8.625 C 18.296875 -6.070312 17.535156 -3.96875 16.015625 -2.3125 C 14.398438 -0.582031 12.304688 0.28125 9.734375 0.28125 C 7.160156 0.28125 5.066406 -0.582031 3.453125 -2.3125 C 1.929688 -3.96875 1.171875 -6.070312 1.171875 -8.625 C 1.171875 -11.175781 1.929688 -13.28125 3.453125 -14.9375 C 5.066406 -16.664062 7.160156 -17.53125 9.734375 -17.53125 Z M 9.734375 -2.078125 C 11.597656 -2.078125 13.070312 -2.71875 14.15625 -4 C 15.1875 -5.21875 15.703125 -6.757812 15.703125 -8.625 C 15.703125 -10.488281 15.1875 -12.03125 14.15625 -13.25 C 13.070312 -14.539062 11.597656 -15.1875 9.734375 -15.1875 C 7.867188 -15.1875 6.394531 -14.539062 5.3125 -13.25 C 4.28125 -12.03125 3.765625 -10.488281 3.765625 -8.625 C 3.765625 -6.757812 4.28125 -5.21875 5.3125 -4 C 6.394531 -2.71875 7.867188 -2.078125 9.734375 -2.078125 Z M 9.734375 -2.078125 "/></g></g></g><g fill="#8cc342" fill-opacity="0.4"><g transform="translate(162.543956, 167.001441)"><g><path d="M 9.734375 -17.53125 C 12.304688 -17.53125 14.398438 -16.664062 16.015625 -14.9375 C 17.535156 -13.28125 18.296875 -11.175781 18.296875 -8.625 C 18.296875 -6.070312 17.535156 -3.96875 16.015625 -2.3125 C 14.398438 -0.582031 12.304688 0.28125 9.734375 0.28125 C 7.160156 0.28125 5.066406 -0.582031 3.453125 -2.3125 C 1.929688 -3.96875 1.171875 -6.070312 1.171875 -8.625 C 1.171875 -11.175781 1.929688 -13.28125 3.453125 -14.9375 C 5.066406 -16.664062 7.160156 -17.53125 9.734375 -17.53125 Z M 9.734375 -2.078125 C 11.597656 -2.078125 13.070312 -2.71875 14.15625 -4 C 15.1875 -5.21875 15.703125 -6.757812 15.703125 -8.625 C 15.703125 -10.488281 15.1875 -12.03125 14.15625 -13.25 C 13.070312 -14.539062 11.597656 -15.1875 9.734375 -15.1875 C 7.867188 -15.1875 6.394531 -14.539062 5.3125 -13.25 C 4.28125 -12.03125 3.765625 -10.488281 3.765625 -8.625 C 3.765625 -6.757812 4.28125 -5.21875 5.3125 -4 C 6.394531 -2.71875 7.867188 -2.078125 9.734375 -2.078125 Z M 9.734375 -2.078125 "/></g></g></g><g fill="#8cc342" fill-opacity="0.4"><g transform="translate(182.009283, 167.001441)"><g><path d="M 15.703125 -2.765625 C 14.328125 -0.734375 12.269531 0.28125 9.53125 0.28125 C 7.039062 0.28125 5.015625 -0.582031 3.453125 -2.3125 C 1.929688 -4.007812 1.171875 -6.113281 1.171875 -8.625 C 1.171875 -11.132812 1.929688 -13.238281 3.453125 -14.9375 C 5.015625 -16.664062 7.09375 -17.53125 9.6875 -17.53125 C 12.289062 -17.53125 14.296875 -16.507812 15.703125 -14.46875 L 15.703125 -24.15625 L 18.296875 -24.15625 L 18.296875 0 L 15.703125 0 Z M 9.875 -2.078125 C 11.738281 -2.078125 13.210938 -2.71875 14.296875 -4 C 15.328125 -5.21875 15.84375 -6.757812 15.84375 -8.625 C 15.84375 -10.488281 15.328125 -12.03125 14.296875 -13.25 C 13.210938 -14.539062 11.738281 -15.1875 9.875 -15.1875 C 8.03125 -15.1875 6.535156 -14.539062 5.390625 -13.25 C 4.304688 -12.03125 3.765625 -10.488281 3.765625 -8.625 C 3.765625 -6.757812 4.304688 -5.21875 5.390625 -4 C 6.535156 -2.71875 8.03125 -2.078125 9.875 -2.078125 Z M 9.875 -2.078125 "/></g></g></g><g fill="#8cc342" fill-opacity="1"><g transform="translate(132.483145, 167.001441)"><g><path d="M 9.671875 -21.984375 C 8.441406 -21.984375 7.519531 -21.710938 6.90625 -21.171875 C 6.300781 -20.628906 6 -19.757812 6 -18.5625 L 6 -17.25 L 10.015625 -17.25 L 10.015625 -14.984375 L 6 -14.984375 L 6 0 L 3.421875 0 L 3.421875 -14.984375 L 0.453125 -14.984375 L 0.453125 -17.25 L 3.421875 -17.25 L 3.421875 -18.78125 C 3.421875 -20.664062 3.984375 -22.078125 5.109375 -23.015625 C 6.234375 -23.960938 7.796875 -24.4375 9.796875 -24.4375 L 10.015625 -24.4375 L 10.015625 -21.984375 Z M 9.671875 -21.984375 "/></g></g></g><g fill="#8cc342" fill-opacity="1"><g transform="translate(143.078629, 167.001441)"><g><path d="M 9.734375 -17.53125 C 12.304688 -17.53125 14.398438 -16.664062 16.015625 -14.9375 C 17.535156 -13.28125 18.296875 -11.175781 18.296875 -8.625 C 18.296875 -6.070312 17.535156 -3.96875 16.015625 -2.3125 C 14.398438 -0.582031 12.304688 0.28125 9.734375 0.28125 C 7.160156 0.28125 5.066406 -0.582031 3.453125 -2.3125 C 1.929688 -3.96875 1.171875 -6.070312 1.171875 -8.625 C 1.171875 -11.175781 1.929688 -13.28125 3.453125 -14.9375 C 5.066406 -16.664062 7.160156 -17.53125 9.734375 -17.53125 Z M 9.734375 -2.078125 C 11.597656 -2.078125 13.070312 -2.71875 14.15625 -4 C 15.1875 -5.21875 15.703125 -6.757812 15.703125 -8.625 C 15.703125 -10.488281 15.1875 -12.03125 14.15625 -13.25 C 13.070312 -14.539062 11.597656 -15.1875 9.734375 -15.1875 C 7.867188 -15.1875 6.394531 -14.539062 5.3125 -13.25 C 4.28125 -12.03125 3.765625 -10.488281 3.765625 -8.625 C 3.765625 -6.757812 4.28125 -5.21875 5.3125 -4 C 6.394531 -2.71875 7.867188 -2.078125 9.734375 -2.078125 Z M 9.734375 -2.078125 "/></g></g></g><g fill="#8cc342" fill-opacity="1"><g transform="translate(162.543956, 167.001441)"><g><path d="M 9.734375 -17.53125 C 12.304688 -17.53125 14.398438 -16.664062 16.015625 -14.9375 C 17.535156 -13.28125 18.296875 -11.175781 18.296875 -8.625 C 18.296875 -6.070312 17.535156 -3.96875 16.015625 -2.3125 C 14.398438 -0.582031 12.304688 0.28125 9.734375 0.28125 C 7.160156 0.28125 5.066406 -0.582031 3.453125 -2.3125 C 1.929688 -3.96875 1.171875 -6.070312 1.171875 -8.625 C 1.171875 -11.175781 1.929688 -13.28125 3.453125 -14.9375 C 5.066406 -16.664062 7.160156 -17.53125 9.734375 -17.53125 Z M 9.734375 -2.078125 C 11.597656 -2.078125 13.070312 -2.71875 14.15625 -4 C 15.1875 -5.21875 15.703125 -6.757812 15.703125 -8.625 C 15.703125 -10.488281 15.1875 -12.03125 14.15625 -13.25 C 13.070312 -14.539062 11.597656 -15.1875 9.734375 -15.1875 C 7.867188 -15.1875 6.394531 -14.539062 5.3125 -13.25 C 4.28125 -12.03125 3.765625 -10.488281 3.765625 -8.625 C 3.765625 -6.757812 4.28125 -5.21875 5.3125 -4 C 6.394531 -2.71875 7.867188 -2.078125 9.734375 -2.078125 Z M 9.734375 -2.078125 "/></g></g></g><g fill="#8cc342" fill-opacity="1"><g transform="translate(182.009283, 167.001441)"><g><path d="M 15.703125 -2.765625 C 14.328125 -0.734375 12.269531 0.28125 9.53125 0.28125 C 7.039062 0.28125 5.015625 -0.582031 3.453125 -2.3125 C 1.929688 -4.007812 1.171875 -6.113281 1.171875 -8.625 C 1.171875 -11.132812 1.929688 -13.238281 3.453125 -14.9375 C 5.015625 -16.664062 7.09375 -17.53125 9.6875 -17.53125 C 12.289062 -17.53125 14.296875 -16.507812 15.703125 -14.46875 L 15.703125 -24.15625 L 18.296875 -24.15625 L 18.296875 0 L 15.703125 0 Z M 9.875 -2.078125 C 11.738281 -2.078125 13.210938 -2.71875 14.296875 -4 C 15.328125 -5.21875 15.84375 -6.757812 15.84375 -8.625 C 15.84375 -10.488281 15.328125 -12.03125 14.296875 -13.25 C 13.210938 -14.539062 11.738281 -15.1875 9.875 -15.1875 C 8.03125 -15.1875 6.535156 -14.539062 5.390625 -13.25 C 4.304688 -12.03125 3.765625 -10.488281 3.765625 -8.625 C 3.765625 -6.757812 4.304688 -5.21875 5.390625 -4 C 6.535156 -2.71875 8.03125 -2.078125 9.875 -2.078125 Z M 9.875 -2.078125 "/></g></g></g><g fill="#474747" fill-opacity="1"><g transform="translate(308.8772, 225.011946)"><g><path d="M 63.390625 0 L 55.40625 0 L 47.609375 -18.46875 L 16.0625 -18.46875 L 8.265625 0 L 0.28125 0 L 27.3125 -63.671875 L 36.359375 -63.671875 Z M 44.828125 -25.109375 L 31.84375 -56.171875 L 18.859375 -25.109375 Z M 44.828125 -25.109375 "/></g></g></g><g fill="#fc7217" fill-opacity="0.4"><g transform="translate(247.646585, 225.784578)"><g><path d="M 34.625 -63.671875 C 38.40625 -63.671875 42.0625 -62.945312 45.59375 -61.5 C 49.125 -60.0625 52.234375 -57.96875 54.921875 -55.21875 C 60.890625 -49.125 63.875 -41.332031 63.875 -31.84375 C 63.875 -22.351562 60.890625 -14.5625 54.921875 -8.46875 C 52.234375 -5.707031 49.125 -3.601562 45.59375 -2.15625 C 42.0625 -0.71875 38.40625 0 34.625 0 L 7.796875 0 L 7.796875 -63.671875 Z M 34.34375 -6.828125 C 41.007812 -6.828125 46.425781 -9.296875 50.59375 -14.234375 C 54.632812 -18.984375 56.65625 -24.851562 56.65625 -31.84375 C 56.65625 -38.832031 54.632812 -44.695312 50.59375 -49.4375 C 46.425781 -54.375 41.007812 -56.84375 34.34375 -56.84375 L 15 -56.84375 L 15 -6.828125 Z M 34.34375 -6.828125 "/></g></g></g><g fill="#fc7217" fill-opacity="1"><g transform="translate(247.646585, 225.784578)"><g><path d="M 34.625 -63.671875 C 38.40625 -63.671875 42.0625 -62.945312 45.59375 -61.5 C 49.125 -60.0625 52.234375 -57.96875 54.921875 -55.21875 C 60.890625 -49.125 63.875 -41.332031 63.875 -31.84375 C 63.875 -22.351562 60.890625 -14.5625 54.921875 -8.46875 C 52.234375 -5.707031 49.125 -3.601562 45.59375 -2.15625 C 42.0625 -0.71875 38.40625 0 34.625 0 L 7.796875 0 L 7.796875 -63.671875 Z M 34.34375 -6.828125 C 41.007812 -6.828125 46.425781 -9.296875 50.59375 -14.234375 C 54.632812 -18.984375 56.65625 -24.851562 56.65625 -31.84375 C 56.65625 -38.832031 54.632812 -44.695312 50.59375 -49.4375 C 46.425781 -54.375 41.007812 -56.84375 34.34375 -56.84375 L 15 -56.84375 L 15 -6.828125 Z M 34.34375 -6.828125 "/></g></g></g></svg>